<svg width="141" height="123" viewBox="0 0 141 123" fill="none" xmlns="http://www.w3.org/2000/svg">
<g id="effect" clip-path="url(#clip0_1667_27194)">
<path id="Vector" d="M106.99 54.777C107.967 35.4682 93.943 27.8852 76.1317 30.5744C54.9487 33.7723 33.6435 47.3394 20.1079 63.4745C7.50076 78.4952 4.95978 98.8942 20.45 113.188C36.4777 127.967 63.158 123.363 81.7023 116.895C100.906 110.184 124.044 97.053 132.204 77.405C140.853 56.5456 135.307 31.6161 113 22.7006C91.3531 14.0516 64.8194 18.6547 45.3467 30.5744C23.6018 43.8749 4.4467 69.5555 13.9021 95.8417C22.4046 119.414 49.4758 125.81 71.856 121.231C96.997 116.095 115.297 97.3437 127.635 75.9514C137.799 58.3142 145.984 32.6579 132.155 14.73C117.96 -3.7067 90.7668 -2.68917 71.6361 6.17787C35.5004 22.9187 -4.91095 84.237 40.2159 113.576C63.2069 128.524 91.402 121.546 112.218 106.308C131.471 92.2318 147.133 67.5931 138.581 43.4146C127.269 11.4109 89.0565 11.4109 61.7409 19.6238C36.0624 27.3764 1.46593 47.3152 -1.84551e-05 77.3807C-0.122181 79.7792 3.64043 79.755 3.73816 77.3807C5.05751 50.0286 36.5999 32.2218 59.5176 24.2511C84.8541 15.4568 118.644 13.7609 133.255 40.5316C148.281 68.0776 122.016 97.9009 98.9272 110.281C74.7635 123.267 37.7482 120.747 26.4115 91.8927C17.1516 68.2957 34.0833 41.3796 50.502 25.4625C69.0707 7.43767 97.5834 -4.48197 121.747 10.2722C145.642 24.8568 133.963 57.9992 122.822 76.7266C108.285 101.172 85.0495 119.657 55.2419 119.099C25.703 118.542 7.3786 91.0932 19.0085 64.1771C30.8582 36.728 63.1091 21.2228 92.0617 22.0707C104.034 22.4341 116.421 26.1651 124.728 35.0806C134.428 45.4981 133.597 61.7544 129.395 74.3039C121.943 96.5685 92.9168 110.208 72.027 115.95C55.2419 120.553 33.3992 121.861 20.5966 107.979C6.98768 93.2251 14.3907 74.8127 26.2894 62.1178C38.6278 48.9384 55.9749 38.9084 73.6151 34.7898C80.4562 33.1909 88.3235 32.5852 94.847 35.6862C102.226 39.1749 103.667 47.4363 103.276 54.7286C103.154 57.1271 106.917 57.1028 107.014 54.7286L106.99 54.777Z" fill="#39CCCC"/>
</g>
<defs>
<clipPath id="clip0_1667_27194">
<rect width="141" height="123" fill="white"/>
</clipPath>
</defs>
</svg>
