<svg width="58" height="81" viewBox="0 0 58 81" fill="none" xmlns="http://www.w3.org/2000/svg">
<g id="Frame" clip-path="url(#clip0_1667_26989)">
<g id="Group">
<g id="OBJECTS">
<g id="Group_2">
<g id="Group_3" style="mix-blend-mode:multiply" opacity="0.54">
<path id="Vector" d="M41.7448 63.0426C48.5848 66.9926 48.6248 73.4026 41.8348 77.3526C35.0348 81.3026 23.9748 81.3026 17.1248 77.3526C10.2848 73.4026 10.2448 66.9926 17.0448 63.0426C23.8448 59.0926 34.9048 59.0926 41.7448 63.0426Z" fill="#E0E0E0"/>
</g>
<g id="Group_4">
<g id="Group_5">
<path id="Vector_2" d="M57.9349 22.8926C57.9649 32.4026 53.8649 43.1726 47.5749 51.8826L33.5449 36.9726L57.9349 22.8926Z" fill="#5481E2"/>
<path id="Vector_3" d="M47.5748 51.8826L38.4748 46.5926L24.4448 31.6826L33.5448 36.9726L47.5748 51.8826Z" fill="#5481E2"/>
<path id="Vector_4" d="M33.5449 36.9727L47.5749 51.8827C43.6249 57.3527 38.8249 61.9927 33.6249 64.9927L33.5449 36.9727Z" fill="#A2BDF4"/>
<path id="Vector_5" d="M33.5448 36.9725L24.4448 31.6825L48.8348 17.6025L57.9348 22.8925L33.5448 36.9725Z" fill="#5481E2"/>
<path id="Vector_6" d="M33.6248 64.9926L24.5248 59.7026L24.4448 31.6826L33.5448 36.9726L33.6248 64.9926Z" fill="#A2BDF4"/>
<path id="Vector_7" d="M41.7152 1.9626L50.8152 7.2526C46.3852 4.6726 40.2452 5.0426 33.4652 8.9526L24.3652 3.6626C31.1452 -0.247401 37.2852 -0.6174 41.7152 1.9626Z" fill="#2445BC"/>
<path id="Vector_8" d="M33.4648 8.94271C46.9348 1.16271 57.8848 7.41271 57.9348 22.8827L33.5448 36.9627L33.4648 8.94271Z" fill="#2F58CC"/>
<path id="Vector_9" d="M33.5452 36.9726L24.4452 31.6826L24.3652 3.6626L33.4652 8.9426L33.5452 36.9726Z" fill="#2F58CC"/>
<path id="Vector_10" d="M16.2751 66.6926L7.17505 61.4026C2.80505 58.8626 0.0850514 53.4526 0.0650514 45.7526C0.0250514 30.2826 10.8951 11.4326 24.3651 3.6626L33.4651 8.9526C19.9951 16.7226 9.12505 35.5726 9.16505 51.0526C9.18505 58.7426 11.8951 64.1526 16.2751 66.6926Z" fill="#CDDDF7"/>
<path id="Vector_11" d="M33.4652 8.94263L33.6252 64.9826C20.1552 72.7526 9.21515 66.5226 9.16515 51.0426C9.12515 35.5726 19.9952 16.7226 33.4652 8.94263Z" fill="#F0F6FF"/>
</g>
<g id="Group_6" style="mix-blend-mode:screen" opacity="0.6">
<path id="Vector_12" d="M33.4653 8.94271L33.5453 36.9627L33.6253 64.9827C38.8253 61.9827 43.6253 57.3427 47.5753 51.8727C53.8653 43.1627 57.9553 32.3927 57.9353 22.8827C57.8953 7.41271 46.9353 1.16271 33.4653 8.94271Z" fill="url(#paint0_linear_1667_26989)"/>
<path id="Vector_13" d="M9.16515 51.0426C9.20515 66.5226 20.1552 72.7626 33.6252 64.9826L33.4652 8.94263C19.9952 16.7126 9.12515 35.5626 9.16515 51.0426Z" fill="url(#paint1_linear_1667_26989)"/>
</g>
</g>
</g>
</g>
</g>
</g>
<defs>
<linearGradient id="paint0_linear_1667_26989" x1="83.2253" y1="54.4627" x2="32.9953" y2="31.9527" gradientUnits="userSpaceOnUse">
<stop stop-color="#F0F6FF"/>
<stop offset="1" stop-color="#F0F6FF" stop-opacity="0"/>
</linearGradient>
<linearGradient id="paint1_linear_1667_26989" x1="79.6651" y1="62.4126" x2="29.4351" y2="39.9026" gradientUnits="userSpaceOnUse">
<stop stop-color="#F0F6FF"/>
<stop offset="1" stop-color="#F0F6FF" stop-opacity="0"/>
</linearGradient>
<clipPath id="clip0_1667_26989">
<rect width="57.87" height="80" fill="white" transform="translate(0.0649414 0.3125)"/>
</clipPath>
</defs>
</svg>
