<svg width="48" height="61" viewBox="0 0 48 61" fill="none" xmlns="http://www.w3.org/2000/svg">
<g id="icon">
<g id="Group">
<g id="Group_2">
<g id="Group_3">
<path id="Vector" d="M40.1339 39.891L35.6418 37.2792L35.5537 6.94141L40.0496 9.55317L40.1339 39.891Z" fill="#132565"/>
<path id="Vector_2" d="M40.0496 9.55323L35.5537 6.94147L42.6001 0.3125L47.0922 2.92426L40.0496 9.55323Z" fill="#1E3A9E"/>
<path id="Vector_3" d="M47.0919 2.92432L47.1876 35.8203L40.1336 39.8911L40.0493 9.55329L47.0919 2.92432Z" fill="#2445BC"/>
</g>
<g id="Group_4">
<path id="Vector_4" d="M33.0839 43.9618L28.5918 41.3501L28.8675 41.1892L33.3634 43.801L33.0839 43.9618Z" fill="#375ABC"/>
<path id="Vector_5" d="M26.3128 47.872L21.8169 45.2602L21.905 45.2104L26.3971 47.8222L26.3128 47.872Z" fill="#4D6DC2"/>
<path id="Vector_6" d="M33.3628 43.8009L28.8669 41.1892L28.8057 19.7053L33.3016 22.3171L33.3628 43.8009Z" fill="#223875"/>
<path id="Vector_7" d="M33.0228 22.3401L28.5308 19.7283L28.8065 19.7053L33.3024 22.3171L33.0228 22.3401Z" fill="#4069DB"/>
<path id="Vector_8" d="M33.3016 22.3171L28.8057 19.7053L35.5534 6.94141L40.0493 9.55317L33.3016 22.3171Z" fill="#2445BC"/>
<path id="Vector_9" d="M40.0495 9.55322L40.1337 39.891L33.0835 43.9618L33.3631 43.801L33.3018 22.3172L40.0495 9.55322Z" fill="#4069DB"/>
<path id="Vector_10" d="M19.3472 51.8929L14.8513 49.2811L14.813 34.5603L19.3051 37.1721L19.3472 51.8929Z" fill="#A6BFF8"/>
<path id="Vector_11" d="M26.3974 47.822L21.9053 45.2103L21.8325 20.2454L26.3284 22.8571L26.3974 47.822Z" fill="#304479"/>
<path id="Vector_12" d="M19.3051 37.1719L14.813 34.5601L21.7483 20.4214L26.2404 23.0331L19.3051 37.1719Z" fill="#5A7FE2"/>
<path id="Vector_13" d="M26.3286 22.8572L26.3975 47.8221L26.3133 47.8719L19.3473 51.8929L19.3052 37.1721L26.2405 23.0333L26.3286 22.8572Z" fill="#8DAAF1"/>
<path id="Vector_14" d="M26.3283 22.8574L33.0224 22.3404L33.3019 22.3174L33.3632 43.8012L33.0837 43.9621L26.313 47.8721L26.3972 47.8223L26.3283 22.8574Z" fill="#5A7FE2"/>
<path id="Vector_15" d="M26.2401 23.0333L21.748 20.4215L21.8323 20.2454L26.3282 22.8571L26.2401 23.0333Z" fill="#5A7FE2"/>
<path id="Vector_16" d="M26.3284 22.857L21.8325 20.2453L28.5304 19.7283L33.0225 22.34L26.3284 22.857Z" fill="#4069DB"/>
</g>
<g id="Group_5">
<path id="Vector_17" d="M12.2816 55.9714L7.78955 53.3596L7.8738 53.3098L12.3697 55.9216L12.2816 55.9714Z" fill="#8FA4D5"/>
<path id="Vector_18" d="M5.31941 59.9925L0.8235 57.3807L0.812012 53.1797L5.30792 55.7914L5.31941 59.9925Z" fill="#A6BFF8"/>
<path id="Vector_19" d="M12.3314 42.9775L7.83936 40.3657L14.7977 34.5754L19.2936 37.1834L12.3314 42.9775Z" fill="#8DAAF1"/>
<path id="Vector_20" d="M12.3697 55.9217L7.87382 53.3099L7.83936 40.366L12.3314 42.9777L12.3697 55.9217Z" fill="#596685"/>
<path id="Vector_21" d="M19.2937 37.1836L19.3358 51.9006L12.2817 55.9714L12.3698 55.9216L12.3315 42.9777L19.2937 37.1836Z" fill="#A6BFF8"/>
<path id="Vector_22" d="M5.30792 55.7915L0.812012 53.1798L7.75118 40.481L12.2471 43.0927L5.30792 55.7915Z" fill="#A6BFF8"/>
<path id="Vector_23" d="M12.2469 43.0926L7.75098 40.4809L7.83906 40.366L12.3311 42.9777L12.2469 43.0926Z" fill="#A6BFF8"/>
<path id="Vector_24" d="M12.3315 42.9778L12.3698 55.9217L12.2817 55.9715L5.31959 59.9925L5.30811 55.7915L12.2473 43.0927L12.3315 42.9778Z" fill="#F0F6FF"/>
</g>
</g>
<path id="Vector_25" style="mix-blend-mode:screen" opacity="0.6" d="M47.0809 2.93555L40.0383 9.56452L33.2906 22.3246L33.0149 22.3438L26.3208 22.8608L26.2328 23.0407L19.3012 37.1718V37.1757L12.3314 42.9775L12.2434 43.0923L5.3042 55.7873L5.31569 59.9884L12.2817 55.9673L19.3281 51.8965L19.3434 51.7893V51.8888L26.3055 47.8678L33.0762 43.9616L40.1226 39.8908L47.1728 35.82L47.0809 2.93555Z" fill="url(#paint0_linear_1667_27096)"/>
</g>
<g id="Group_6" style="mix-blend-mode:multiply" opacity="0.54">
<path id="Vector_26" d="M46.5961 43.5613C48.1615 44.4642 43.0393 48.9129 35.1575 53.4927C27.2758 58.0725 19.6161 61.0541 18.0507 60.1512C16.4852 59.2484 21.6038 54.7996 29.4892 50.2199C37.371 45.6401 45.0307 42.6585 46.5961 43.5613Z" fill="#E0E0E0"/>
</g>
</g>
<defs>
<linearGradient id="paint0_linear_1667_27096" x1="2.54691" y1="14.0374" x2="34.3055" y2="37.4322" gradientUnits="userSpaceOnUse">
<stop stop-color="#F0F6FF"/>
<stop offset="1" stop-color="#F0F6FF" stop-opacity="0"/>
</linearGradient>
</defs>
</svg>
