<svg width="38" height="81" viewBox="0 0 38 81" fill="none" xmlns="http://www.w3.org/2000/svg">
<g clip-path="url(#clip0_1709_2491)">
<path d="M14.08 45.1124L23.49 39.6424L10.66 38.9724L1.25 44.4424L14.08 45.1124Z" fill="#2445BC"/>
<path d="M26.8301 72.1124L36.2401 66.6424L36.2801 53.7524L26.8701 59.2224L26.8301 72.1124Z" fill="#2445BC"/>
<path d="M26.8701 59.2226L36.2801 53.7526L23.4901 39.6426L14.0801 45.1126L26.8701 59.2226Z" fill="#2445BC"/>
<path d="M14.08 45.1124L1.24996 44.4424L1.20996 57.3224L14.04 57.9924L26.83 72.1124L26.87 59.2224L14.08 45.1124Z" fill="#2F58CC"/>
<path d="M14.1098 32.2325L23.5298 26.7625L10.6998 26.0825L1.27979 31.5525L14.1098 32.2325Z" fill="#4069DB"/>
<path d="M26.8701 59.2326L36.2801 53.7626L36.3201 40.8726L26.9001 46.3426L26.8701 59.2326Z" fill="#4069DB"/>
<path d="M26.8999 46.3424L36.3199 40.8725L23.5299 26.7625L14.1099 32.2325L26.8999 46.3424Z" fill="#4069DB"/>
<path d="M14.11 32.2325L1.28 31.5525L1.25 44.4425L14.08 45.1125L26.87 59.2325L26.9 46.3425L14.11 32.2325Z" fill="#5481E2"/>
<path d="M14.1498 19.3524L23.5598 13.8824L10.7298 13.2024L1.31982 18.6724L14.1498 19.3524Z" fill="#8DAAF1"/>
<path d="M14.1498 19.3526L1.31979 18.6726L1.27979 31.5526L14.1098 32.2226L26.8998 46.3426L26.9398 33.4526L14.1498 19.3526Z" fill="#A2BDF4"/>
<path d="M26.8999 46.3424L36.3199 40.8724L36.3499 27.9824L26.9399 33.4524L26.8999 46.3424Z" fill="#8DAAF1"/>
<path d="M26.9399 33.4526L36.3499 27.9826L23.5599 13.8826L14.1499 19.3526L26.9399 33.4526Z" fill="#8DAAF1"/>
<path d="M14.1899 6.4625L23.5999 0.9825L10.7699 0.3125L1.35986 5.7825L14.1899 6.4625Z" fill="#E4ECF9"/>
<path d="M26.9399 33.4625L36.3499 27.9925L36.3899 15.1025L26.9799 20.5725L26.9399 33.4625Z" fill="#CDDDF7"/>
<path d="M26.9799 20.5724L36.3899 15.1024L23.5999 0.982422L14.1899 6.46242L26.9799 20.5724Z" fill="#D9E4F4"/>
<path d="M14.1898 6.46247L1.35982 5.78247L1.31982 18.6725L14.1498 19.3525L26.9398 33.4625L26.9798 20.5725L14.1898 6.46247Z" fill="#F0F6FF"/>
<g style="mix-blend-mode:multiply" opacity="0.67">
<path d="M26.8301 72.1125L36.2401 66.6425L36.2801 15.1025L26.8701 20.5725L26.8301 72.1125Z" fill="url(#paint0_linear_1709_2491)"/>
</g>
<path style="mix-blend-mode:screen" opacity="0.6" d="M1.24996 44.4425L1.27996 31.5525H1.28996L1.31996 18.6725L1.35996 5.78247L14.19 6.46247L26.98 20.5725L26.94 33.4625L26.9 50.8425L26.89 50.8225L26.87 59.2225L26.83 72.1125L14.04 57.9925L1.20996 57.3225L1.24996 44.4425Z" fill="url(#paint1_linear_1709_2491)"/>
<g style="mix-blend-mode:multiply" opacity="0.54">
<path d="M3.23186 63.4447C1.94176 64.1945 6.16568 67.8778 12.662 71.6664C19.1583 75.4615 25.4712 77.9281 26.7679 77.1782C28.058 76.4284 23.8406 72.7451 17.3378 68.9565C10.8414 65.1679 4.52195 62.7014 3.23186 63.4447Z" fill="#E0E0E0"/>
</g>
</g>
<defs>
<linearGradient id="paint0_linear_1709_2491" x1="36.1901" y1="109.613" x2="27.5601" y2="-13.2775" gradientUnits="userSpaceOnUse">
<stop stop-color="#5E88E4"/>
<stop offset="1" stop-color="#648DE5" stop-opacity="0"/>
</linearGradient>
<linearGradient id="paint1_linear_1709_2491" x1="0.749962" y1="-29.9275" x2="17.5" y2="56.5325" gradientUnits="userSpaceOnUse">
<stop stop-color="#F0F6FF"/>
<stop offset="1" stop-color="#F0F6FF" stop-opacity="0"/>
</linearGradient>
<clipPath id="clip0_1709_2491">
<rect width="36.64" height="80" fill="white" transform="translate(0.680176 0.3125)"/>
</clipPath>
</defs>
</svg>
