<svg width="476" height="257" viewBox="0 0 476 257" fill="none" xmlns="http://www.w3.org/2000/svg">
<rect y="0.3125" width="476" height="256" rx="16" fill="white" fill-opacity="0.2"/>
<path d="M254.134 79.891L249.642 77.2792L249.554 46.9414L254.05 49.5532L254.134 79.891Z" fill="#132565"/>
<path d="M254.05 49.5532L249.554 46.9415L256.6 40.3125L261.092 42.9243L254.05 49.5532Z" fill="#1E3A9E"/>
<path d="M261.092 42.9243L261.188 75.8203L254.134 79.8911L254.049 49.5533L261.092 42.9243Z" fill="#2445BC"/>
<path d="M247.084 83.9618L242.592 81.3501L242.868 81.1892L247.363 83.801L247.084 83.9618Z" fill="#375ABC"/>
<path d="M240.313 87.872L235.817 85.2602L235.905 85.2104L240.397 87.8222L240.313 87.872Z" fill="#4D6DC2"/>
<path d="M247.363 83.8009L242.867 81.1892L242.806 59.7053L247.302 62.3171L247.363 83.8009Z" fill="#223875"/>
<path d="M247.023 62.3401L242.531 59.7283L242.806 59.7053L247.302 62.3171L247.023 62.3401Z" fill="#4069DB"/>
<path d="M247.302 62.3171L242.806 59.7053L249.553 46.9414L254.049 49.5532L247.302 62.3171Z" fill="#2445BC"/>
<path d="M254.049 49.5532L254.134 79.891L247.083 83.9618L247.363 83.801L247.302 62.3172L254.049 49.5532Z" fill="#4069DB"/>
<path d="M233.347 91.8929L228.851 89.2811L228.813 74.5603L233.305 77.1721L233.347 91.8929Z" fill="#A6BFF8"/>
<path d="M240.397 87.822L235.905 85.2103L235.833 60.2454L240.328 62.8571L240.397 87.822Z" fill="#304479"/>
<path d="M233.305 77.1719L228.813 74.5601L235.748 60.4214L240.24 63.0331L233.305 77.1719Z" fill="#5A7FE2"/>
<path d="M240.329 62.8572L240.398 87.8221L240.313 87.8719L233.347 91.8929L233.305 77.1721L240.241 63.0333L240.329 62.8572Z" fill="#8DAAF1"/>
<path d="M240.328 62.8574L247.022 62.3404L247.302 62.3174L247.363 83.8012L247.084 83.9621L240.313 87.8721L240.397 87.8223L240.328 62.8574Z" fill="#5A7FE2"/>
<path d="M240.24 63.0333L235.748 60.4215L235.832 60.2454L240.328 62.8571L240.24 63.0333Z" fill="#5A7FE2"/>
<path d="M240.328 62.857L235.833 60.2453L242.53 59.7283L247.022 62.34L240.328 62.857Z" fill="#4069DB"/>
<path d="M226.282 95.9714L221.79 93.3596L221.874 93.3098L226.37 95.9216L226.282 95.9714Z" fill="#8FA4D5"/>
<path d="M219.319 99.9925L214.824 97.3807L214.812 93.1797L219.308 95.7914L219.319 99.9925Z" fill="#A6BFF8"/>
<path d="M226.331 82.9775L221.839 80.3657L228.798 74.5754L233.294 77.1834L226.331 82.9775Z" fill="#8DAAF1"/>
<path d="M226.37 95.9217L221.874 93.3099L221.839 80.366L226.331 82.9777L226.37 95.9217Z" fill="#596685"/>
<path d="M233.294 77.1836L233.336 91.9006L226.282 95.9714L226.37 95.9216L226.332 82.9777L233.294 77.1836Z" fill="#A6BFF8"/>
<path d="M219.308 95.7915L214.812 93.1798L221.751 80.481L226.247 83.0927L219.308 95.7915Z" fill="#A6BFF8"/>
<path d="M226.247 83.0926L221.751 80.4809L221.839 80.366L226.331 82.9777L226.247 83.0926Z" fill="#A6BFF8"/>
<path d="M226.332 82.9778L226.37 95.9217L226.282 95.9715L219.32 99.9925L219.308 95.7915L226.247 83.0927L226.332 82.9778Z" fill="#F0F6FF"/>
<path style="mix-blend-mode:screen" opacity="0.6" d="M261.081 42.9355L254.038 49.5645L247.291 62.3246L247.015 62.3438L240.321 62.8608L240.233 63.0407L233.301 77.1718V77.1757L226.331 82.9775L226.243 83.0923L219.304 95.7873L219.316 99.9884L226.282 95.9673L233.328 91.8965L233.343 91.7893V91.8888L240.306 87.8678L247.076 83.9616L254.123 79.8908L261.173 75.82L261.081 42.9355Z" fill="url(#paint0_linear_1667_27071)"/>
<g style="mix-blend-mode:multiply" opacity="0.54">
<path d="M260.596 83.5613C262.162 84.4642 257.039 88.9129 249.158 93.4927C241.276 98.0725 233.616 101.054 232.051 100.151C230.485 99.2484 235.604 94.7996 243.489 90.2199C251.371 85.6401 259.031 82.6585 260.596 83.5613Z" fill="#E0E0E0"/>
</g>
<path d="M182.609 126.141V138.797H179.633V133.758H176.305V131.344H179.633V126.141H182.609ZM164.492 136.453C167.984 135.281 169.578 132.492 169.648 129.82H165.359V127.43H176.938V129.82H172.695C172.754 132.305 174.277 134.812 177.594 135.914L176.117 138.258C173.773 137.496 172.145 135.949 171.219 134.039C170.281 136.207 168.57 137.953 166.039 138.82L164.492 136.453ZM167.984 143.391C167.984 140.801 170.773 139.277 175.32 139.266C179.879 139.277 182.668 140.801 182.68 143.391C182.668 145.98 179.879 147.492 175.32 147.492C170.773 147.492 167.984 145.98 167.984 143.391ZM170.961 143.391C170.961 144.609 172.496 145.219 175.32 145.219C178.156 145.219 179.691 144.609 179.703 143.391C179.691 142.16 178.156 141.551 175.32 141.562C172.496 141.551 170.961 142.16 170.961 143.391ZM201.938 126.164V132.258H204.656V134.719H201.938V140.648H198.938V126.164H201.938ZM184.641 137.906C186.199 137.906 187.969 137.906 189.82 137.859V136.664C187.5 136.336 186.059 135.199 186.07 133.57C186.059 131.59 188.133 130.371 191.297 130.383C194.438 130.371 196.512 131.59 196.523 133.57C196.512 135.199 195.082 136.324 192.797 136.652V137.754C194.555 137.66 196.312 137.531 197.953 137.32L198.164 139.383C193.652 140.18 188.707 140.227 184.945 140.227L184.641 137.906ZM185.203 129.891V127.711H189.82V125.977H192.797V127.711H197.414V129.891H185.203ZM187.359 143.812V141.516H201.938V147.469H198.938V143.812H187.359ZM188.93 133.57C188.918 134.344 189.773 134.801 191.297 134.789C192.797 134.801 193.652 134.344 193.664 133.57C193.652 132.738 192.797 132.375 191.297 132.375C189.773 132.375 188.918 132.738 188.93 133.57ZM222.039 126.164V132.703H224.922V135.141H222.039V142.078H219.039V126.164H222.039ZM205.117 130.758V128.391H209.969V126.117H212.945V128.391H217.773V130.758H205.117ZM206.148 135.633C206.148 133.16 208.34 131.508 211.445 131.508C214.539 131.508 216.695 133.16 216.695 135.633C216.695 138.094 214.539 139.711 211.445 139.711C208.34 139.711 206.148 138.094 206.148 135.633ZM208.211 147.094V140.859H211.188V144.703H222.812V147.094H208.211ZM209.078 135.633C209.066 136.805 210.016 137.438 211.445 137.438C212.887 137.438 213.859 136.805 213.859 135.633C213.859 134.449 212.887 133.793 211.445 133.781C210.016 133.793 209.066 134.449 209.078 135.633ZM249.914 142.5V144.984H230.391V142.5H249.914ZM231.914 130.406V128.016H248.273V130.406H245.273V136.875H248.18V139.219H232.008V136.875H234.867V130.406H231.914ZM237.867 136.875H242.32V130.406H237.867V136.875ZM270.133 137.086V139.43H250.609V137.086H258.883V135.75H253.047V130.078H264.766V128.789H253V126.539H267.766V132.188H256.023V133.406H268.164V135.75H261.859V137.086H270.133ZM253.117 147.234V140.578H267.859V147.234H253.117ZM256.047 144.844H264.883V142.945H256.047V144.844ZM290.398 142.5V144.984H270.875V142.5H290.398ZM272.398 130.406V128.016H288.758V130.406H285.758V136.875H288.664V139.219H272.492V136.875H275.352V130.406H272.398ZM278.352 136.875H282.805V130.406H278.352V136.875ZM308.508 137.156V139.523H293.414V127.711H308.344V130.125H296.461V132.375H307.852V134.719H296.461V137.156H308.508ZM291.117 144.984V142.547H310.641V144.984H291.117Z" fill="white"/>
<path d="M85.7578 174.422C85.7578 176.867 87.375 179.391 89.3516 180.359L88.6016 181.344C87.0703 180.547 85.7891 178.898 85.1719 176.969C84.5547 179.016 83.2422 180.773 81.6797 181.609L80.8984 180.625C82.9297 179.625 84.5391 176.961 84.5547 174.422V171.891H85.7578V174.422ZM90.6328 184.578V170.688H91.8516V176.328H94.1797V177.391H91.8516V184.578H90.6328ZM107.086 177.562V178.578H94.4297V177.562H97.5703V175.602C96.4609 175.172 95.8359 174.469 95.8359 173.531C95.8359 171.898 97.7109 170.961 100.758 170.953C103.781 170.961 105.656 171.898 105.664 173.531C105.656 174.461 105.039 175.164 103.945 175.602V177.562H107.086ZM95.9609 182.094C95.9531 180.508 97.7422 179.633 100.758 179.641C103.734 179.633 105.523 180.508 105.539 182.094C105.523 183.68 103.734 184.547 100.758 184.547C97.7422 184.547 95.9531 183.68 95.9609 182.094ZM97.1016 173.531C97.0938 174.547 98.4844 175.133 100.758 175.141C103.008 175.133 104.406 174.547 104.414 173.531C104.406 172.531 103.008 171.922 100.758 171.922C98.4844 171.922 97.0938 172.531 97.1016 173.531ZM97.2109 182.094C97.1953 183.039 98.5312 183.602 100.758 183.594C102.961 183.602 104.297 183.039 104.305 182.094C104.297 181.148 102.961 180.594 100.758 180.578C98.5312 180.594 97.1953 181.148 97.2109 182.094ZM98.7891 177.562H102.727V175.93C102.141 176.039 101.484 176.094 100.758 176.094C100.031 176.094 99.375 176.039 98.7891 175.938V177.562ZM112.461 174.953C112.445 177.18 114.055 179.633 116.07 180.594L115.367 181.562C113.805 180.797 112.484 179.156 111.859 177.273C111.219 179.312 109.828 181.109 108.273 181.906L107.523 180.938C109.523 179.961 111.242 177.32 111.258 174.953V173.141H108.023V172.125H115.586V173.141H112.461V174.953ZM117.289 184.578V170.688H118.508V176.312H120.836V177.359H118.508V184.578H117.289ZM131.945 170.688V174.922H134.039V175.953H131.945V180.859H130.711V170.688H131.945ZM121.102 178.266C124.438 177.227 126.602 175.25 126.859 172.797H121.68V171.766H128.195C128.195 175.344 125.641 178 121.633 179.25L121.102 178.266ZM123.242 184.281V179.828H124.461V183.25H132.586V184.281H123.242ZM149.414 170.688V184.578H148.18V170.688H149.414ZM137.914 180.094C138.516 180.094 139.164 180.086 139.836 180.078V173.219H138.273V172.203H146.211V173.219H144.633V179.898C145.414 179.844 146.188 179.773 146.93 179.688L147.008 180.609C143.977 181.078 140.625 181.125 138.055 181.141L137.914 180.094ZM141.039 180.055C141.82 180.039 142.625 180.008 143.43 179.969V173.219H141.039V180.055ZM162.477 177.375V178.391H152.883V171.984H162.336V173H154.102V177.375H162.477ZM151.258 182.688V181.656H163.977V182.688H151.258ZM166.383 171.578V173.781H169.477V171.578H170.633V178.047H165.227V171.578H166.383ZM166.383 177.031H169.477V174.766H166.383V177.031ZM167.023 180.891V179.875H176.383V184.578H175.18V180.891H167.023ZM172.211 178.953V170.969H173.367V174.312H175.211V170.703H176.383V179.031H175.211V175.328H173.367V178.953H172.211ZM184.242 170.938C187.328 170.938 189.141 171.789 189.148 173.328C189.141 174.906 187.328 175.758 184.242 175.766C181.141 175.758 179.32 174.906 179.32 173.328C179.32 171.789 181.141 170.938 184.242 170.938ZM177.914 177.703V176.703H190.57V177.703H177.914ZM179.445 179.844V178.906H188.945V182.016H180.695V183.453H189.367V184.422H179.477V181.109H187.742V179.844H179.445ZM180.602 173.328C180.586 174.297 181.938 174.828 184.242 174.828C186.547 174.828 187.891 174.297 187.898 173.328C187.891 172.414 186.547 171.867 184.242 171.859C181.938 171.867 180.586 172.414 180.602 173.328ZM207.414 178.062V179.062H194.742V178.062H200.461V176.688H196.43V171.094H205.836V172.094H197.664V173.391H205.461V174.328H197.664V175.703H205.914V176.688H201.68V178.062H207.414ZM196.289 182.328C196.281 180.883 198.008 180.094 201.086 180.109C204.133 180.094 205.852 180.883 205.867 182.328C205.852 183.789 204.133 184.547 201.086 184.547C198.008 184.547 196.281 183.789 196.289 182.328ZM197.523 182.328C197.508 183.172 198.789 183.609 201.086 183.594C203.359 183.609 204.625 183.172 204.633 182.328C204.625 181.5 203.359 181.039 201.086 181.031C198.789 181.039 197.508 181.5 197.523 182.328ZM215.023 173.094V174.094H208.055V173.094H210.945V171.109H212.164V173.094H215.023ZM208.555 178.188C208.555 176.344 209.812 175.039 211.539 175.031C213.289 175.039 214.539 176.344 214.555 178.188C214.539 180.055 213.289 181.367 211.539 181.375C209.812 181.367 208.555 180.055 208.555 178.188ZM209.648 178.188C209.648 179.422 210.438 180.305 211.539 180.297C212.648 180.305 213.461 179.422 213.461 178.188C213.461 176.969 212.648 176.078 211.539 176.062C210.438 176.078 209.648 176.969 209.648 178.188ZM215.742 183.891V171.031H216.898V176.547H218.742V170.688H219.914V184.578H218.742V177.562H216.898V183.891H215.742ZM235.789 170.641V174.016H237.898V175.031H235.789V178.328H234.57V170.641H235.789ZM224.961 172.938V171.953H228.492V170.547H229.711V171.953H233.242V172.938H224.961ZM225.758 175.844C225.75 174.438 227.078 173.57 229.102 173.562C231.117 173.57 232.43 174.438 232.445 175.844C232.43 177.258 231.117 178.117 229.102 178.125C227.078 178.117 225.75 177.258 225.758 175.844ZM226.93 179.969V179.047H235.789V182.125H228.164V183.484H236.305V184.422H226.961V181.219H234.57V179.969H226.93ZM226.93 175.844C226.922 176.68 227.781 177.203 229.102 177.203C230.414 177.203 231.273 176.68 231.289 175.844C231.273 175.016 230.414 174.477 229.102 174.469C227.781 174.477 226.922 175.016 226.93 175.844ZM249.414 171.25V174.859H241.039V176.656H249.711V177.672H239.805V173.891H248.164V172.25H239.773V171.25H249.414ZM238.242 180.125V179.141H250.961V180.125H245.18V184.609H243.961V180.125H238.242ZM256.523 174.422C256.516 176.961 258.242 179.508 260.289 180.438L259.539 181.406C257.953 180.641 256.586 178.992 255.922 177.016C255.281 179.109 253.914 180.867 252.289 181.688L251.508 180.656C253.578 179.711 255.289 177.055 255.305 174.422V171.891H256.523V174.422ZM261.805 184.609V170.688H263.039V184.609H261.805ZM266.82 172.203V179.984C268.328 179.969 269.75 179.883 271.414 179.531L271.586 180.594C269.734 180.984 268.172 181.055 266.477 181.062H265.602V172.203H266.82ZM269.492 176.391V175.375H272.664V171.031H273.836V183.875H272.664V176.391H269.492ZM275.633 184.578V170.688H276.805V184.578H275.633ZM289.695 170.688V184.609H288.461V170.688H289.695ZM278.758 176.609C278.766 173.656 280.234 171.773 282.305 171.766C284.367 171.773 285.859 173.656 285.852 176.609C285.859 179.57 284.367 181.445 282.305 181.438C280.234 181.445 278.766 179.57 278.758 176.609ZM279.945 176.609C279.945 178.867 280.914 180.352 282.305 180.344C283.703 180.352 284.664 178.867 284.664 176.609C284.664 174.352 283.703 172.867 282.305 172.859C280.914 172.867 279.945 174.352 279.945 176.609ZM296.32 173.266C296.32 175.305 297.719 177.227 299.727 178.016L299.039 178.969C297.516 178.336 296.32 177.07 295.734 175.492C295.141 177.195 293.891 178.547 292.273 179.219L291.602 178.234C293.672 177.438 295.109 175.445 295.117 173.266V171.484H296.32V173.266ZM294.102 184.281V180H295.336V183.25H303.398V184.281H294.102ZM298.992 176.625V175.625H301.852V173.781H298.992V172.766H301.852V170.703H303.086V181.078H301.852V176.625H298.992ZM311.227 170.938C314.312 170.938 316.125 171.789 316.133 173.328C316.125 174.906 314.312 175.758 311.227 175.766C308.125 175.758 306.305 174.906 306.305 173.328C306.305 171.789 308.125 170.938 311.227 170.938ZM304.898 177.703V176.703H317.555V177.703H304.898ZM306.43 179.844V178.906H315.93V182.016H307.68V183.453H316.352V184.422H306.461V181.109H314.727V179.844H306.43ZM307.586 173.328C307.57 174.297 308.922 174.828 311.227 174.828C313.531 174.828 314.875 174.297 314.883 173.328C314.875 172.414 313.531 171.867 311.227 171.859C308.922 171.867 307.57 172.414 307.586 173.328ZM327.008 178.016V180.578C328.352 180.508 329.711 180.398 330.992 180.203L331.086 181.109C327.906 181.688 324.492 181.711 321.992 181.703L321.82 180.688C322.984 180.68 324.359 180.672 325.805 180.625V178.016H327.008ZM322.242 177.531C324.297 176.922 325.742 175.398 325.773 173.531H322.586V172.516H325.805V170.797H327.008V172.516H330.273V173.531H327.008C327.047 175.32 328.531 176.789 330.586 177.375L330.008 178.344C328.344 177.844 327.031 176.773 326.406 175.367C325.805 176.852 324.508 177.961 322.836 178.469L322.242 177.531ZM331.914 184.609V170.688H333.133V184.609H331.914ZM347.789 181.75V182.766H335.07V181.75H340.758V178.344H341.961V181.75H347.789ZM335.57 177.484C338 177.07 340.703 175.039 340.711 172.703V171.641H341.992V172.703C342 175.023 344.742 177.07 347.164 177.484L346.617 178.5C344.5 178.062 342.266 176.633 341.367 174.633C340.453 176.625 338.242 178.062 336.117 178.5L335.57 177.484ZM359.18 170.688V176.609H361.398V177.641H359.18V184.578H357.945V170.688H359.18ZM348.227 180.875C349.359 180.875 350.68 180.867 352.055 180.828V179.297C350.438 179.109 349.383 178.156 349.398 176.781C349.383 175.211 350.711 174.195 352.68 174.203C354.617 174.195 355.969 175.211 355.977 176.781C355.969 178.164 354.898 179.109 353.289 179.297V180.781C354.578 180.719 355.891 180.609 357.102 180.438L357.18 181.375C354.148 181.891 350.867 181.922 348.43 181.922L348.227 180.875ZM348.477 173.391V172.391H352.055V170.719H353.289V172.391H356.852V173.391H348.477ZM350.539 176.781C350.547 177.742 351.391 178.375 352.68 178.359C353.945 178.375 354.797 177.742 354.805 176.781C354.797 175.812 353.945 175.156 352.68 175.156C351.391 175.156 350.547 175.812 350.539 176.781ZM375.992 170.688V176.422H378.32V177.438H375.992V184.578H374.773V170.688H375.992ZM365.164 173.938V172.922H368.742V170.859H369.961V172.922H373.43V173.938H365.164ZM365.961 178.281C365.953 176.406 367.391 175.094 369.367 175.094C371.328 175.094 372.758 176.406 372.773 178.281C372.758 180.164 371.328 181.469 369.367 181.469C367.391 181.469 365.953 180.164 365.961 178.281ZM367.133 178.281C367.125 179.547 368.07 180.438 369.367 180.422C370.648 180.438 371.586 179.547 371.602 178.281C371.586 177.023 370.648 176.117 369.367 176.125C368.07 176.117 367.125 177.023 367.133 178.281ZM385.461 172.078V174.031H388.867V170.688H390.086V184.609H388.867V178.875H385.461V181.062H379.133V172.078H385.461ZM380.352 180.078H384.273V173.047H380.352V180.078ZM385.461 177.859H388.867V175.047H385.461V177.859ZM394.18 182.266L392.961 186.516H391.805L392.664 182.266H394.18ZM101.445 197.438C101.438 201.078 99.0391 203.633 94.9297 204.781L94.2266 203.422C97.3906 202.562 99.2656 200.906 99.5859 198.844H94.9922V197.438H101.445ZM96.6641 210.516V205.109H105.961V210.516H96.6641ZM98.3672 209.141H104.242V206.484H98.3672V209.141ZM101.508 201.469V200.047H104.227V196.594H105.961V204.547H104.227V201.469H101.508ZM120.336 203.156V204.562H107.461V203.156H120.336ZM108.086 201.156C110.703 200.898 112.406 199.852 112.672 198.672H108.633V197.25H119.18V198.672H115.102C115.359 199.836 117.047 200.898 119.727 201.156L119.117 202.531C116.547 202.266 114.648 201.242 113.883 199.812C113.117 201.242 111.242 202.266 108.68 202.531L108.086 201.156ZM108.961 208.094C108.961 206.453 110.812 205.5 113.883 205.5C116.93 205.5 118.766 206.453 118.773 208.094C118.766 209.758 116.93 210.688 113.883 210.688C110.812 210.688 108.961 209.758 108.961 208.094ZM110.727 208.094C110.719 208.914 111.828 209.32 113.883 209.328C115.906 209.32 117.023 208.914 117.039 208.094C117.023 207.273 115.906 206.859 113.883 206.859C111.828 206.859 110.719 207.273 110.727 208.094ZM129.008 201.016V202.406H126.383V204.008C127.562 203.961 128.734 203.883 129.836 203.766L129.961 205.016C126.961 205.43 123.719 205.508 121.086 205.516L120.852 204.125C122.016 204.117 123.305 204.109 124.633 204.07V202.406H122.07V197.453H128.898V198.859H123.82V201.016H129.008ZM123.102 210.422V206.406H124.852V209.016H132.977V210.422H123.102ZM130.82 207.188V196.578H132.57V207.188H130.82ZM139.43 209.312H137.258L141.242 198H143.742L147.742 209.312H145.57L144.625 206.516H140.367L139.43 209.312ZM140.914 204.875H144.078L142.539 200.312H142.445L140.914 204.875ZM150.617 198V209.312H148.586V198H150.617ZM167.852 207.547V209H154.945V207.547H167.852ZM156.008 199.281V197.891H166.727V199.281H164.664V203.781H166.68V205.156H156.055V203.781H158.039V199.281H156.008ZM159.773 203.781H162.945V199.281H159.773V203.781ZM181.164 203.891V205.266H168.258V203.891H173.852V202.844H169.898V199.219H177.836V198.188H169.852V196.875H179.57V200.469H171.617V201.469H179.852V202.844H175.57V203.891H181.164ZM169.945 210.531V206.156H179.617V210.531H169.945ZM171.648 209.125H177.898V207.531H171.648V209.125ZM194.508 207.547V209H181.602V207.547H194.508ZM182.664 199.281V197.891H193.383V199.281H191.32V203.781H193.336V205.156H182.711V203.781H184.695V199.281H182.664ZM186.43 203.781H189.602V199.281H186.43V203.781ZM206.414 203.984V205.359H196.508V197.688H206.289V199.094H198.273V200.797H205.961V202.156H198.273V203.984H206.414ZM194.93 208.984V207.562H207.836V208.984H194.93ZM221.055 203.141V204.109H208.336V203.141H221.055ZM209.867 206.141V205.219H219.461V208.172H211.117V209.5H219.914V210.391H209.883V207.328H218.242V206.141H209.867ZM209.945 198V197.109H219.414V199.984H211.211V201.203H219.664V202.094H209.992V199.141H218.18V198H209.945ZM229.945 199.312C229.945 201.25 231.352 203.078 233.383 203.812L232.695 204.766C231.172 204.164 229.953 202.961 229.359 201.445C228.773 203.125 227.508 204.453 225.867 205.109L225.211 204.109C227.297 203.344 228.734 201.398 228.742 199.266V197.547H229.945V199.312ZM227.727 210.281V205.922H228.961V209.25H237.023V210.281H227.727ZM232.383 201V199.969H235.477V196.703H236.711V207.109H235.477V201H232.383ZM250.023 196.688V203.953H248.805V202.172H245.523V203.391H239.227V197.344H240.445V199.344H244.32V197.344H245.523V198.688H248.805V196.688H250.023ZM240.445 202.391H244.32V200.312H240.445V202.391ZM241.023 205.609V204.625H250.023V207.891H242.273V209.406H250.555V210.391H241.055V206.953H248.805V205.609H241.023ZM245.523 201.203H248.805V199.641H245.523V201.203ZM262.602 196.688V202.422H264.93V203.438H262.602V210.578H261.383V196.688H262.602ZM251.773 199.938V198.922H255.352V196.859H256.57V198.922H260.039V199.938H251.773ZM252.57 204.281C252.562 202.406 254 201.094 255.977 201.094C257.938 201.094 259.367 202.406 259.383 204.281C259.367 206.164 257.938 207.469 255.977 207.469C254 207.469 252.562 206.164 252.57 204.281ZM253.742 204.281C253.734 205.547 254.68 206.438 255.977 206.422C257.258 206.438 258.195 205.547 258.211 204.281C258.195 203.023 257.258 202.117 255.977 202.125C254.68 202.117 253.734 203.023 253.742 204.281ZM276.414 200.906V201.891H266.898V197.203H268.117V200.906H276.414ZM265.164 204.781V203.781H277.883V204.781H265.164ZM266.82 210.234V206.203H268.039V209.219H276.492V210.234H266.82ZM290.398 196.688V210.578H289.211V196.688H290.398ZM279.055 207.234V198.406H284.289V199.422H280.242V206.203C282.25 206.188 283.516 206.117 285.008 205.781L285.133 206.828C283.523 207.156 282.164 207.227 279.93 207.234H279.055ZM283.352 203.031V202H286.383V197.031H287.555V209.859H286.383V203.031H283.352ZM306.57 203.203V204.203H302.273V207.797H308.07V208.828H295.352V207.797H301.07V204.203H296.977V197.828H306.43V198.828H298.211V203.203H306.57ZM315.008 196.953C318.031 196.961 319.906 197.922 319.914 199.578C319.906 201.203 318.031 202.164 315.008 202.156C311.984 202.164 310.086 201.203 310.086 199.578C310.086 197.922 311.984 196.961 315.008 196.953ZM308.68 204.234V203.219H321.336V204.234H315.602V205.828H319.789V210.391H310.227V205.828H314.398V204.234H308.68ZM311.352 199.578C311.344 200.594 312.758 201.188 315.008 201.188C317.234 201.188 318.656 200.594 318.664 199.578C318.656 198.539 317.234 197.922 315.008 197.922C312.758 197.922 311.344 198.539 311.352 199.578ZM311.445 209.391H318.586V206.812H311.445V209.391ZM328.336 196.938C331.422 196.938 333.234 197.789 333.242 199.328C333.234 200.906 331.422 201.758 328.336 201.766C325.234 201.758 323.414 200.906 323.414 199.328C323.414 197.789 325.234 196.938 328.336 196.938ZM322.008 203.703V202.703H334.664V203.703H322.008ZM323.539 205.844V204.906H333.039V208.016H324.789V209.453H333.461V210.422H323.57V207.109H331.836V205.844H323.539ZM324.695 199.328C324.68 200.297 326.031 200.828 328.336 200.828C330.641 200.828 331.984 200.297 331.992 199.328C331.984 198.414 330.641 197.867 328.336 197.859C326.031 197.867 324.68 198.414 324.695 199.328ZM350.07 203.375V204.391H340.477V197.984H349.93V199H341.695V203.375H350.07ZM338.852 208.688V207.656H351.57V208.688H338.852ZM363.68 196.688V210.609H362.461V204.688H359.57V203.656H362.461V200.891H359.68V199.859H362.461V196.688H363.68ZM352.664 198.969V197.953H358.773V202.891H353.93V206.312C356.016 206.312 357.742 206.234 359.852 205.906L359.961 206.938C357.742 207.281 355.961 207.359 353.742 207.359H352.711V201.891H357.57V198.969H352.664ZM378.227 207.766V208.797H365.508V207.766H368.664V204.023C367.477 203.406 366.758 202.406 366.758 201.141C366.758 198.992 368.867 197.578 371.836 197.562C374.805 197.578 376.914 198.992 376.914 201.141C376.914 202.383 376.219 203.367 375.07 203.984V207.766H378.227ZM367.945 201.141C367.938 202.695 369.555 203.734 371.836 203.734C374.094 203.734 375.727 202.695 375.727 201.141C375.727 199.586 374.094 198.562 371.836 198.578C369.555 198.562 367.938 199.586 367.945 201.141ZM369.867 207.766H373.836V204.461C373.234 204.617 372.562 204.703 371.836 204.703C371.125 204.703 370.461 204.625 369.867 204.469V207.766ZM380.305 209.406C379.758 209.398 379.289 208.945 379.305 208.391C379.289 207.844 379.758 207.391 380.305 207.391C380.859 207.391 381.312 207.844 381.305 208.391C381.312 208.945 380.859 209.398 380.305 209.406Z" fill="white"/>
<defs>
<linearGradient id="paint0_linear_1667_27071" x1="216.547" y1="54.0374" x2="248.305" y2="77.4322" gradientUnits="userSpaceOnUse">
<stop stop-color="#F0F6FF"/>
<stop offset="1" stop-color="#F0F6FF" stop-opacity="0"/>
</linearGradient>
</defs>
</svg>
