<svg width="476" height="277" viewBox="0 0 476 277" fill="none" xmlns="http://www.w3.org/2000/svg">
<rect y="0.3125" width="476" height="276" rx="16" fill="white" fill-opacity="0.2"/>
<g clip-path="url(#clip0_1667_27016)">
<g style="mix-blend-mode:multiply" opacity="0.57">
<path d="M264.725 104.843L238.115 120.313L211.315 104.843L237.935 89.3726L264.725 104.843Z" fill="#E0E0E0"/>
</g>
<path d="M264.725 80.6824L264.685 96.4724L238.065 111.932L238.115 96.1424L264.725 80.6824Z" fill="#2445BC"/>
<path d="M238.115 96.1424L238.065 111.932L211.275 96.4724L211.315 80.6824L238.115 96.1424Z" fill="#3767D3"/>
<path d="M264.725 80.6824L238.115 96.1424L211.315 80.6824L237.935 65.2124L264.725 80.6824Z" fill="#2F57C9"/>
<path d="M257.155 65.0425L257.125 76.3525L238.045 87.4425L238.075 76.1225L257.155 65.0425Z" fill="#4069DB"/>
<path d="M238.075 76.1225L238.045 87.4425L218.845 76.3625L218.875 65.0425L238.075 76.1225Z" fill="#5481E2"/>
<path d="M257.155 65.0424L238.075 76.1224L218.875 65.0424L237.955 53.9524L257.155 65.0424Z" fill="#4A78DD"/>
<path d="M252.265 53.8525L252.235 62.2825L238.035 70.5325L238.055 62.1025L252.265 53.8525Z" fill="#8DAAF1"/>
<path d="M238.055 62.1025L238.035 70.5325L223.745 62.2825L223.765 53.8525L238.055 62.1025Z" fill="#A2BDF4"/>
<path d="M252.265 53.8525L238.055 62.1025L223.765 53.8525L237.965 45.6025L252.265 53.8525Z" fill="#9DBAF4"/>
<path d="M246.945 45.4924L246.925 50.7724L238.025 55.9424L238.035 50.6624L246.945 45.4924Z" fill="#CDDDF7"/>
<path d="M238.035 50.6624L238.025 55.9424L229.055 50.7724L229.075 45.4924L238.035 50.6624Z" fill="#DAE6F7"/>
<path d="M246.945 45.4925L238.035 50.6625L229.075 45.4925L237.975 40.3125L246.945 45.4925Z" fill="#F0F6FF"/>
<path d="M238.115 96.1424L238.065 111.932L211.275 96.4724L211.315 80.6824L238.115 96.1424Z" fill="url(#paint0_linear_1667_27016)"/>
<path d="M238.075 76.1225L238.045 87.4425L218.845 76.3625L218.875 65.0425L238.075 76.1225Z" fill="url(#paint1_linear_1667_27016)"/>
<path d="M238.055 62.1025L238.035 70.5325L223.745 62.2825L223.765 53.8525L238.055 62.1025Z" fill="url(#paint2_linear_1667_27016)"/>
<path d="M238.035 50.6624L238.025 55.9424L229.055 50.7724L229.075 45.4924L238.035 50.6624Z" fill="url(#paint3_linear_1667_27016)"/>
</g>
<path d="M163.078 148.18C163.066 154.742 161.297 160.238 153.609 164.234L151.969 161.984C155.344 160.215 157.453 158.234 158.684 155.867L152.484 156.43L152.086 153.898L159.609 153.453C159.855 152.551 160.008 151.59 160.09 150.57H153.234V148.18H163.078ZM163.031 156.781V154.344H167.133V146.141H170.109V167.469H167.133V156.781H163.031ZM183.602 148.953C183.59 152.082 186.367 155.422 191.195 156.242L189.883 158.727C186.156 157.988 183.402 155.891 182.02 153.16C180.613 155.867 177.848 157.977 174.156 158.727L172.867 156.242C177.613 155.398 180.391 152.047 180.414 148.953V147.406H183.602V148.953ZM172.375 164.844V162.383H191.898V164.844H172.375ZM210.594 146.141V158.633H207.617V153.664H203.961V151.227H207.617V146.141H210.594ZM193.625 158.023V147.359H203.375V149.703H196.602V151.461H202.719V153.758H196.602V155.586C199.73 155.562 201.781 155.469 204.148 155.07L204.406 157.461C201.676 157.93 199.262 158.023 195.289 158.023H193.625ZM196.25 167.234V159.547H210.594V167.234H196.25ZM199.25 164.844H207.664V161.938H199.25V164.844ZM226.867 147.406V149.82H221.594V151.508H226.07V153.805H221.594V155.668C223.914 155.633 225.613 155.527 227.594 155.211L227.898 157.531C225.449 157.953 223.41 158.035 220.188 158.023H218.734V147.406H226.867ZM221.664 167.234V159.711H236.219V167.234H221.664ZM224.641 164.844H233.266V162.055H224.641V164.844ZM226.984 153.664V151.273H229.141V146.469H231.977V158.727H229.141V153.664H226.984ZM233.383 158.867V146.141H236.219V158.867H233.383ZM255.852 146.727V148.953H253.062V151.766H255.711V153.992H239.984V151.766H242.609V148.953H239.844V146.727H255.852ZM238.133 157.461V155.117H257.586V157.461H238.133ZM240.383 160.836V158.68H255.219V163.953H243.336V165.125H255.781V167.328H240.406V161.914H252.266V160.836H240.383ZM245.609 151.766H250.062V148.953H245.609V151.766ZM276.211 146.141V160.695H273.234V146.141H276.211ZM259.477 149.844V147.453H269.367V154.016H262.43V156.125C266.25 156.09 268.664 155.938 271.43 155.469L271.758 157.836C268.652 158.41 265.887 158.504 261.375 158.516H259.5V151.766H266.391V149.844H259.477ZM260.602 165.102C265.148 164.539 267.398 162.301 267.398 159.992V159.617H270.539V159.992C270.516 162.277 272.742 164.539 277.312 165.102L276.234 167.398C272.73 166.895 270.234 165.465 268.957 163.449C267.668 165.465 265.184 166.918 261.727 167.398L260.602 165.102ZM302.094 146.141V167.469H299.258V146.141H302.094ZM283.203 161.234C286.344 159.301 287.516 155.48 287.516 151.859V150.711H284.023V148.32H293.633V150.711H290.398V151.859C290.387 155.398 291.5 158.984 294.617 160.766L292.859 162.969C290.949 161.844 289.707 159.945 288.98 157.648C288.254 160.133 286.965 162.242 285.008 163.438L283.203 161.234ZM292.109 155.867V153.453H294.922V146.492H297.734V166.484H294.922V155.867H292.109ZM313.5 159.43C318.164 159.43 321.094 160.906 321.117 163.461C321.094 165.98 318.164 167.48 313.5 167.469C308.871 167.48 305.895 165.98 305.906 163.461C305.895 160.906 308.871 159.43 313.5 159.43ZM303.938 158.07V155.656H311.203V151.93H314.156V155.656H323.297V158.07H303.938ZM306.117 149.445V147.102H321V148.836C321.012 150.535 321.012 152.363 320.391 154.555L317.461 154.273C317.941 152.34 318 150.898 318.023 149.445H306.117ZM308.883 163.461C308.871 164.609 310.559 165.195 313.5 165.195C316.441 165.195 318.141 164.609 318.141 163.461C318.141 162.277 316.441 161.645 313.5 161.656C310.559 161.645 308.871 162.277 308.883 163.461Z" fill="white"/>
<path d="M108.984 203.312V192H110.391V202.062H115.641V203.312H108.984ZM117.016 203.312V192H118.422V202.062H123.672V203.312H117.016ZM125.047 192H126.734L130.547 201.312H130.688L134.5 192H136.188V203.312H134.859V194.766H134.75L131.234 203.312H129.984L126.469 194.766H126.375V203.312H125.047V192ZM142.047 191.703C144.227 191.711 145.773 193.039 145.781 194.969C145.773 196.906 144.227 198.227 142.047 198.234C139.852 198.227 138.289 196.906 138.297 194.969C138.289 193.039 139.852 191.711 142.047 191.703ZM137.578 200.5C140.141 200.508 143.68 200.484 146.75 200.031L146.844 200.938C143.664 201.531 140.25 201.547 137.75 201.547L137.578 200.5ZM139.5 194.969C139.492 196.266 140.562 197.156 142.047 197.156C143.516 197.156 144.586 196.266 144.578 194.969C144.586 193.68 143.516 192.781 142.047 192.781C140.562 192.781 139.492 193.68 139.5 194.969ZM147.672 204.609V190.688H148.891V204.609H147.672ZM159 194.422C159 196.867 160.617 199.391 162.594 200.359L161.844 201.344C160.312 200.547 159.031 198.898 158.414 196.969C157.797 199.016 156.484 200.773 154.922 201.609L154.141 200.625C156.172 199.625 157.781 196.961 157.797 194.422V191.891H159V194.422ZM163.875 204.578V190.688H165.094V196.328H167.422V197.391H165.094V204.578H163.875ZM179.188 190.703V200.891H177.953V195.562H175.094V194.547H177.953V190.703H179.188ZM167.734 198.109C169.781 197.391 171.266 195.555 171.266 193.562V192.844H168.125V191.828H175.609V192.844H172.5V193.562C172.5 195.359 173.891 197.102 175.922 197.797L175.281 198.781C173.719 198.211 172.508 197.047 171.906 195.609C171.305 197.219 170.023 198.492 168.375 199.109L167.734 198.109ZM170.266 204.281V199.969H171.5V203.25H179.578V204.281H170.266ZM189.484 194.953C189.492 197.312 191.203 199.711 193.25 200.594L192.562 201.562C190.938 200.828 189.539 199.227 188.891 197.305C188.242 199.344 186.836 201.109 185.25 201.906L184.516 200.938C186.508 199.984 188.242 197.359 188.25 194.953V193.141H184.969V192.125H192.797V193.141H189.484V194.953ZM194.734 204.578V190.688H195.969V204.578H194.734ZM202.766 192.703C202.75 194.727 204.219 196.531 206.281 197.25L205.656 198.219C204.047 197.625 202.773 196.43 202.148 194.891C201.539 196.539 200.258 197.836 198.625 198.469L197.984 197.5C200.062 196.727 201.516 194.805 201.516 192.703V191.375H202.766V192.703ZM199.969 200.766V199.75H209.312V204.578H208.094V200.766H199.969ZM208.094 199.062V190.688H209.312V199.062H208.094ZM217.453 198.844V200.578H219.984V198.844H221.125V204.391H216.297V198.844H217.453ZM214.906 194.5C214.898 192.602 216.398 191.312 218.516 191.312C220.383 191.312 221.797 192.367 222.062 193.969H224.969V190.688H226.203V198.047H224.969V194.984H222.07C221.828 196.625 220.398 197.703 218.516 197.703C216.398 197.703 214.898 196.406 214.906 194.5ZM216.078 194.5C216.078 195.773 217.086 196.68 218.516 196.688C219.914 196.68 220.922 195.773 220.922 194.5C220.922 193.234 219.914 192.344 218.516 192.344C217.086 192.344 216.078 193.234 216.078 194.5ZM217.453 203.422H219.984V201.516H217.453V203.422ZM221.312 203.562C222.984 202.867 223.867 201.344 223.875 199.938V198.75H225.094V199.938C225.078 201.398 225.961 202.938 227.656 203.562L227.016 204.5C225.734 203.992 224.898 203.008 224.469 201.859C224.031 202.992 223.18 203.977 221.953 204.5L221.312 203.562ZM239.469 190.688V204.609H238.234V190.688H239.469ZM228.531 196.609C228.539 193.656 230.008 191.773 232.078 191.766C234.141 191.773 235.633 193.656 235.625 196.609C235.633 199.57 234.141 201.445 232.078 201.438C230.008 201.445 228.539 199.57 228.531 196.609ZM229.719 196.609C229.719 198.867 230.688 200.352 232.078 200.344C233.477 200.352 234.438 198.867 234.438 196.609C234.438 194.352 233.477 192.867 232.078 192.859C230.688 192.867 229.719 194.352 229.719 196.609ZM252.562 197.203V198.203H248.266V201.797H254.062V202.828H241.344V201.797H247.062V198.203H242.969V191.828H252.422V192.828H244.203V197.203H252.562ZM269.672 190.688V197.906H268.438V190.688H269.672ZM258.422 196.391C258.977 196.391 259.578 196.383 260.203 196.375V192.625H258.812V191.641H266.328V192.625H264.922V196.188C265.641 196.133 266.344 196.062 267.016 195.984L267.078 196.891C264.297 197.305 261.031 197.414 258.578 197.406L258.422 196.391ZM260.578 199.562V198.578H269.672V201.891H261.828V203.422H270.203V204.422H260.625V200.969H268.453V199.562H260.578ZM261.391 196.352C262.156 196.328 262.945 196.305 263.734 196.258V192.625H261.391V196.352ZM284.234 201.766V202.797H271.516V201.766H274.672V198.023C273.484 197.406 272.766 196.406 272.766 195.141C272.766 192.992 274.875 191.578 277.844 191.562C280.812 191.578 282.922 192.992 282.922 195.141C282.922 196.383 282.227 197.367 281.078 197.984V201.766H284.234ZM273.953 195.141C273.945 196.695 275.562 197.734 277.844 197.734C280.102 197.734 281.734 196.695 281.734 195.141C281.734 193.586 280.102 192.562 277.844 192.578C275.562 192.562 273.945 193.586 273.953 195.141ZM275.875 201.766H279.844V198.461C279.242 198.617 278.57 198.703 277.844 198.703C277.133 198.703 276.469 198.625 275.875 198.469V201.766ZM295.703 190.703V195.281H297.797V196.312H295.703V201.109H294.484V190.703H295.703ZM284.875 193.406V192.406H288.406V190.703H289.625V192.406H293.156V193.406H284.875ZM285.672 196.766C285.664 195.188 287.008 194.172 289.016 194.172C291 194.172 292.344 195.188 292.359 196.766C292.344 198.328 291 199.336 289.016 199.328C287.008 199.336 285.664 198.328 285.672 196.766ZM286.844 196.766C286.836 197.742 287.703 198.375 289.016 198.359C290.312 198.375 291.188 197.742 291.203 196.766C291.188 195.773 290.312 195.133 289.016 195.141C287.703 195.133 286.836 195.773 286.844 196.766ZM287.016 204.281V200.281H288.219V203.25H296.344V204.281H287.016ZM314.406 201.75V202.797H301.688V201.75H314.406ZM302.812 193.109V192.094H313.188V193.109H310.984V197.969H313.156V198.969H302.844V197.969H305.016V193.109H302.812ZM306.234 197.969H309.781V193.109H306.234V197.969ZM327.719 198V198.984H315V198H320.75V196.656H316.656V193.375H324.844V191.984H316.609V191.031H326.078V194.281H317.875V195.672H326.375V196.656H321.953V198H327.719ZM316.734 204.391V200.141H326.078V204.391H316.734ZM317.938 203.391H324.875V201.141H317.938V203.391ZM341.062 201.75V202.797H328.344V201.75H341.062ZM329.469 193.109V192.094H339.844V193.109H337.641V197.969H339.812V198.969H329.5V197.969H331.672V193.109H329.469ZM332.891 197.969H336.438V193.109H332.891V197.969ZM352.922 198.203V199.203H343.312V191.891H352.766V192.922H344.562V194.984H352.469V195.969H344.562V198.203H352.922ZM341.672 202.766V201.75H354.391V202.766H341.672ZM367.703 197.141V198.109H354.984V197.141H367.703ZM356.516 200.141V199.219H366.109V202.172H357.766V203.5H366.562V204.391H356.531V201.328H364.891V200.141H356.516ZM356.594 192V191.109H366.062V193.984H357.859V195.203H366.312V196.094H356.641V193.141H364.828V192H356.594ZM176.055 229.016V230.422H166.227V226.344H167.961V229.016H176.055ZM164.633 225.391V223.984H170.195V221.859H171.914V223.984H177.508V225.391H164.633ZM165.367 221.375C168.266 220.945 170.164 219.25 170.164 217.469V216.969H171.93V217.469C171.93 219.312 173.789 220.977 176.742 221.375L176.055 222.734C173.75 222.352 171.93 221.266 171.039 219.719C170.148 221.258 168.344 222.367 166.055 222.734L165.367 221.375ZM181.852 225.328V226.625H187.992V225.328H189.711V230.531H180.133V225.328H181.852ZM177.977 222.609C180.625 222.609 184.094 222.609 187.133 222.219L187.242 223.453C186.094 223.648 184.906 223.773 183.742 223.859V225.672H182.008V223.953C180.641 224 179.344 224 178.195 224L177.977 222.609ZM178.523 220.609C180.695 220.148 181.852 218.914 181.852 217.547V216.938H183.633V217.547C183.641 218.836 184.805 219.984 186.945 220.406L186.195 221.719C184.562 221.375 183.391 220.594 182.766 219.523C182.156 220.68 180.969 221.562 179.289 221.938L178.523 220.609ZM181.852 229.141H187.992V227.953H181.852V229.141ZM187.977 224.719V216.594H189.711V224.719H187.977ZM203.477 216.578V230.703H201.82V216.578H203.477ZM191.18 226.484C194.102 224.758 195.445 222.547 195.711 219.703H191.898V218.297H197.43C197.43 219.664 197.258 220.945 196.875 222.141H198.836V216.922H200.477V230.031H198.836V223.531H196.305C195.484 225.148 194.156 226.562 192.164 227.719L191.18 226.484ZM212.961 219.969C212.945 222.492 214.211 225.039 216.398 226.094L215.336 227.484C213.805 226.711 212.703 225.219 212.102 223.422C211.484 225.344 210.328 226.938 208.711 227.75L207.648 226.359C209.922 225.281 211.219 222.578 211.227 219.969V217.719H212.961V219.969ZM217.242 230.703V216.578H218.977V222.109H221.148V223.594H218.977V230.703H217.242ZM234.117 223.375V224.766H221.242V223.375H224.242V221.586C223.172 221.133 222.57 220.422 222.57 219.5C222.57 217.805 224.547 216.812 227.664 216.812C230.773 216.812 232.75 217.805 232.758 219.5C232.75 220.43 232.141 221.141 231.07 221.586V223.375H234.117ZM222.742 228.141C222.742 226.516 224.578 225.609 227.664 225.625C230.703 225.609 232.547 226.516 232.555 228.141C232.547 229.781 230.703 230.672 227.664 230.672C224.578 230.672 222.742 229.781 222.742 228.141ZM224.383 219.5C224.367 220.359 225.578 220.82 227.664 220.812C229.742 220.82 230.961 220.359 230.961 219.5C230.961 218.633 229.742 218.148 227.664 218.156C225.578 218.148 224.367 218.633 224.383 219.5ZM224.508 228.141C224.5 228.938 225.609 229.367 227.664 229.359C229.688 229.367 230.805 228.938 230.82 228.141C230.805 227.352 229.688 226.945 227.664 226.938C225.609 226.945 224.5 227.352 224.508 228.141ZM225.992 223.375H229.336V222.031C228.828 222.102 228.266 222.141 227.664 222.141C227.062 222.141 226.5 222.102 225.992 222.031V223.375ZM245.523 216.641V220.016H247.633V221.031H245.523V224.328H244.305V216.641H245.523ZM234.695 218.938V217.953H238.227V216.547H239.445V217.953H242.977V218.938H234.695ZM235.492 221.844C235.484 220.438 236.812 219.57 238.836 219.562C240.852 219.57 242.164 220.438 242.18 221.844C242.164 223.258 240.852 224.117 238.836 224.125C236.812 224.117 235.484 223.258 235.492 221.844ZM236.664 225.969V225.047H245.523V228.125H237.898V229.484H246.039V230.422H236.695V227.219H244.305V225.969H236.664ZM236.664 221.844C236.656 222.68 237.516 223.203 238.836 223.203C240.148 223.203 241.008 222.68 241.023 221.844C241.008 221.016 240.148 220.477 238.836 220.469C237.516 220.477 236.656 221.016 236.664 221.844ZM258.477 217.984C258.484 219.945 261.031 221.633 263.539 221.984L263.039 222.984C260.883 222.625 258.742 221.43 257.852 219.727C256.961 221.445 254.828 222.625 252.664 222.984L252.164 221.984C254.672 221.633 257.211 219.977 257.211 217.984V217.188H258.477V217.984ZM251.508 225.547V224.516H264.164V225.547H258.414V230.578H257.211V225.547H251.508ZM273.055 226.016C273.047 227.242 273.711 228.547 275.031 229.297C276.359 228.477 277.062 227.086 277.055 226.016V225.25H278.258V226.016C278.25 227.445 279.305 228.867 281.086 229.484L280.477 230.391C279.086 229.898 278.117 228.93 277.633 227.766C277.203 228.891 276.352 229.961 275.07 230.5C273.719 229.984 272.859 228.969 272.445 227.805C271.945 228.922 270.992 229.891 269.664 230.391L269.039 229.484C270.797 228.828 271.852 227.344 271.867 226.016V225.25H273.055V226.016ZM268.68 220.766C268.672 218.828 270.211 217.508 272.32 217.516C274.43 217.508 275.953 218.828 275.961 220.766C275.953 222.672 274.43 223.984 272.32 223.984C270.211 223.984 268.672 222.672 268.68 220.766ZM269.883 220.766C269.867 222.055 270.891 222.961 272.32 222.969C273.734 222.961 274.758 222.055 274.758 220.766C274.758 219.469 273.734 218.547 272.32 218.562C270.891 218.547 269.867 219.469 269.883 220.766ZM278.602 224.641V216.703H279.82V224.641H278.602ZM285.414 217.766C287.305 217.773 288.672 219.398 288.859 222H291.977V216.688H293.195V230.609H291.977V223.016H288.875C288.742 225.742 287.352 227.445 285.414 227.438C283.359 227.445 281.922 225.57 281.93 222.609C281.922 219.656 283.359 217.773 285.414 217.766ZM283.102 222.609C283.109 224.867 284.047 226.352 285.414 226.344C286.773 226.352 287.727 224.867 287.727 222.609C287.727 220.352 286.773 218.867 285.414 218.859C284.047 218.867 283.109 220.352 283.102 222.609ZM307.727 227.766V228.797H295.008V227.766H298.164V224.023C296.977 223.406 296.258 222.406 296.258 221.141C296.258 218.992 298.367 217.578 301.336 217.562C304.305 217.578 306.414 218.992 306.414 221.141C306.414 222.383 305.719 223.367 304.57 223.984V227.766H307.727ZM297.445 221.141C297.438 222.695 299.055 223.734 301.336 223.734C303.594 223.734 305.227 222.695 305.227 221.141C305.227 219.586 303.594 218.562 301.336 218.578C299.055 218.562 297.438 219.586 297.445 221.141ZM299.367 227.766H303.336V224.461C302.734 224.617 302.062 224.703 301.336 224.703C300.625 224.703 299.961 224.625 299.367 224.469V227.766ZM309.805 229.406C309.258 229.398 308.789 228.945 308.805 228.391C308.789 227.844 309.258 227.391 309.805 227.391C310.359 227.391 310.812 227.844 310.805 228.391C310.812 228.945 310.359 229.398 309.805 229.406Z" fill="white"/>
<defs>
<linearGradient id="paint0_linear_1667_27016" x1="172.145" y1="-7.41764" x2="224.895" y2="96.7124" gradientUnits="userSpaceOnUse">
<stop stop-color="#F0F6FF"/>
<stop offset="1" stop-color="#F0F6FF" stop-opacity="0"/>
</linearGradient>
<linearGradient id="paint1_linear_1667_27016" x1="183.235" y1="-13.0275" x2="235.985" y2="91.0925" gradientUnits="userSpaceOnUse">
<stop stop-color="#F0F6FF"/>
<stop offset="1" stop-color="#F0F6FF" stop-opacity="0"/>
</linearGradient>
<linearGradient id="paint2_linear_1667_27016" x1="190.835" y1="-16.8875" x2="243.585" y2="87.2325" gradientUnits="userSpaceOnUse">
<stop stop-color="#F0F6FF"/>
<stop offset="1" stop-color="#F0F6FF" stop-opacity="0"/>
</linearGradient>
<linearGradient id="paint3_linear_1667_27016" x1="197.575" y1="-20.2976" x2="250.325" y2="83.8224" gradientUnits="userSpaceOnUse">
<stop stop-color="#F0F6FF"/>
<stop offset="1" stop-color="#F0F6FF" stop-opacity="0"/>
</linearGradient>
<clipPath id="clip0_1667_27016">
<rect width="53.45" height="80" fill="white" transform="translate(211.275 40.3125)"/>
</clipPath>
</defs>
</svg>
