<svg width="476" height="277" viewBox="0 0 476 277" fill="none" xmlns="http://www.w3.org/2000/svg">
<rect y="0.3125" width="476" height="276" rx="16" fill="white" fill-opacity="0.2"/>
<g clip-path="url(#clip0_1667_26984)">
<g style="mix-blend-mode:multiply" opacity="0.54">
<path d="M250.745 103.043C257.585 106.993 257.625 113.403 250.835 117.353C244.035 121.303 232.975 121.303 226.125 117.353C219.285 113.403 219.245 106.993 226.045 103.043C232.845 99.0926 243.905 99.0926 250.745 103.043Z" fill="#E0E0E0"/>
</g>
<path d="M266.935 62.8926C266.965 72.4026 262.865 83.1726 256.575 91.8826L242.545 76.9726L266.935 62.8926Z" fill="#5481E2"/>
<path d="M256.575 91.8826L247.475 86.5926L233.445 71.6826L242.545 76.9726L256.575 91.8826Z" fill="#5481E2"/>
<path d="M242.545 76.9727L256.575 91.8827C252.625 97.3527 247.825 101.993 242.625 104.993L242.545 76.9727Z" fill="#A2BDF4"/>
<path d="M242.545 76.9725L233.445 71.6825L257.835 57.6025L266.935 62.8925L242.545 76.9725Z" fill="#5481E2"/>
<path d="M242.625 104.993L233.525 99.7026L233.445 71.6826L242.545 76.9726L242.625 104.993Z" fill="#A2BDF4"/>
<path d="M250.715 41.9626L259.815 47.2526C255.385 44.6726 249.245 45.0426 242.465 48.9526L233.365 43.6626C240.145 39.7526 246.285 39.3826 250.715 41.9626Z" fill="#2445BC"/>
<path d="M242.465 48.9427C255.935 41.1627 266.885 47.4127 266.935 62.8827L242.545 76.9627L242.465 48.9427Z" fill="#2F58CC"/>
<path d="M242.545 76.9726L233.445 71.6826L233.365 43.6626L242.465 48.9426L242.545 76.9726Z" fill="#2F58CC"/>
<path d="M225.275 106.693L216.175 101.403C211.805 98.8626 209.085 93.4526 209.065 85.7526C209.025 70.2826 219.895 51.4326 233.365 43.6626L242.465 48.9526C228.995 56.7226 218.125 75.5726 218.165 91.0526C218.185 98.7426 220.895 104.153 225.275 106.693Z" fill="#CDDDF7"/>
<path d="M242.465 48.9426L242.625 104.983C229.155 112.753 218.215 106.523 218.165 91.0426C218.125 75.5726 228.995 56.7226 242.465 48.9426Z" fill="#F0F6FF"/>
<g style="mix-blend-mode:screen" opacity="0.6">
<path d="M242.465 48.9427L242.545 76.9627L242.625 104.983C247.825 101.983 252.625 97.3427 256.575 91.8727C262.865 83.1627 266.955 72.3927 266.935 62.8827C266.895 47.4127 255.935 41.1627 242.465 48.9427Z" fill="url(#paint0_linear_1667_26984)"/>
<path d="M218.165 91.0426C218.205 106.523 229.155 112.763 242.625 104.983L242.465 48.9426C228.995 56.7126 218.125 75.5626 218.165 91.0426Z" fill="url(#paint1_linear_1667_26984)"/>
</g>
</g>
<path d="M181.086 147.055C183.805 147.031 185.973 148.59 186.559 150.875H190.133V146.141H193.109V157.602H190.133V153.266H186.57C186.02 155.609 183.828 157.203 181.086 157.203C177.805 157.203 175.391 155.07 175.414 152.094C175.391 149.176 177.805 147.031 181.086 147.055ZM178.25 152.094C178.238 153.688 179.41 154.695 181.086 154.695C182.703 154.695 183.863 153.688 183.875 152.094C183.863 150.5 182.703 149.527 181.086 149.539C179.41 149.527 178.238 150.5 178.25 152.094ZM178.883 167.234V158.539H181.836V160.602H190.133V158.539H193.109V167.234H178.883ZM181.836 164.82H190.133V162.898H181.836V164.82ZM214.875 158.07V160.461H206.531V167.445H203.578V160.461H195.352V158.07H214.875ZM197.648 155.773V147.172H212.531V155.773H197.648ZM200.602 153.43H209.555V149.539H200.602V153.43ZM222.531 147.57C225.918 147.559 228.426 149.738 228.438 152.797C228.426 155.867 225.918 158.035 222.531 158.047C219.168 158.035 216.59 155.867 216.602 152.797C216.59 149.738 219.168 147.559 222.531 147.57ZM215.711 160.719C219.52 160.73 224.793 160.684 229.352 160.039L229.586 162.195C224.852 163.121 219.789 163.156 216.062 163.156L215.711 160.719ZM219.578 152.797C219.566 154.484 220.844 155.457 222.531 155.445C224.23 155.457 225.52 154.484 225.531 152.797C225.52 151.133 224.23 150.148 222.531 150.148C220.844 150.148 219.566 151.133 219.578 152.797ZM230.57 167.516V146.141H233.547V167.516H230.57ZM247.711 149.938C247.711 152.246 248.906 154.52 251.742 155.609L250.148 157.883C248.32 157.191 247.066 155.926 246.305 154.355C245.531 156.195 244.195 157.73 242.203 158.562L240.586 156.266C243.598 154.941 244.805 152.316 244.805 149.938V147.43H247.711V149.938ZM244.547 163.484C244.535 160.988 247.406 159.488 251.93 159.5C256.43 159.488 259.312 160.988 259.336 163.484C259.312 165.957 256.43 167.48 251.93 167.469C247.406 167.48 244.535 165.957 244.547 163.484ZM247.547 163.484C247.523 164.633 249.129 165.219 251.93 165.219C254.707 165.219 256.312 164.633 256.312 163.484C256.312 162.324 254.707 161.727 251.93 161.727C249.129 161.727 247.523 162.324 247.547 163.484ZM251.812 158.539V146.539H254.602V151.367H256.383V146.164H259.219V159.195H256.383V153.781H254.602V158.539H251.812ZM269.008 149.797C268.996 152.527 270.543 155.176 274 156.289L272.43 158.633C270.098 157.848 268.48 156.324 267.555 154.379C266.605 156.512 264.906 158.188 262.445 159.031L260.781 156.664C264.426 155.539 265.984 152.68 266.008 149.773V147.453H269.008V149.797ZM264.203 167.094V160.227H267.25V164.703H278.852V167.094H264.203ZM275.055 161.773V146.141H278.055V152.305H280.938V154.836H278.055V161.773H275.055ZM289.438 149.047C289.426 151.895 290.891 154.531 294.312 155.586L292.742 157.93C290.445 157.133 288.887 155.668 287.984 153.746C287.047 155.973 285.324 157.719 282.758 158.586L281.188 156.195C284.832 155.023 286.402 152.164 286.414 149.188V147.242H289.438V149.047ZM284.727 163.344C284.727 160.719 287.516 159.184 292.062 159.195C296.621 159.184 299.41 160.719 299.422 163.344C299.41 165.98 296.621 167.48 292.062 167.469C287.516 167.48 284.727 165.98 284.727 163.344ZM287.703 163.344C287.703 164.527 289.238 165.148 292.062 165.148C294.898 165.148 296.434 164.527 296.445 163.344C296.434 162.125 294.898 161.516 292.062 161.516C289.238 161.516 287.703 162.125 287.703 163.344ZM292.367 152.492V150.055H296.375V146.141H299.352V158.633H296.375V152.492H292.367Z" fill="white"/>
<path d="M98.7422 201.797V202.828H86.0234V201.797H91.7578V198.609H92.9609V201.797H98.7422ZM86.7266 198.141C89.4062 197.711 91.7266 196.094 91.7422 193.922H87.2109V192.906H91.7578V190.984H92.9609V192.906H97.5234V193.922H92.9922C92.9922 196.094 95.3125 197.711 97.9766 198.141L97.5078 199.109C95.2891 198.719 93.25 197.594 92.3594 195.852C91.4844 197.594 89.4453 198.719 87.2109 199.109L86.7266 198.141ZM112.07 201.781V202.797H99.3516V201.781H105.07V198.781H100.852V191.672H102.086V194.188H109.305V191.672H110.508V198.781H106.273V201.781H112.07ZM102.086 197.781H109.305V195.188H102.086V197.781ZM117.383 194.953C117.367 197.18 118.977 199.633 120.992 200.594L120.289 201.562C118.727 200.797 117.406 199.156 116.781 197.273C116.141 199.312 114.75 201.109 113.195 201.906L112.445 200.938C114.445 199.961 116.164 197.32 116.18 194.953V193.141H112.945V192.125H120.508V193.141H117.383V194.953ZM122.211 204.578V190.688H123.43V196.312H125.758V197.359H123.43V204.578H122.211ZM138.711 198.938V199.938H132.914V204.578H131.711V199.938H125.992V198.938H138.711ZM127.617 197.25V191.266H128.836V193.188H135.836V191.266H137.07V197.25H127.617ZM128.836 196.25H135.836V194.188H128.836V196.25ZM150.852 190.688V204.609H149.633V196.953H146.695V195.938H149.633V190.688H150.852ZM139.977 201.25V191.969H146.461V192.984H141.211V195.875H145.852V196.875H141.211V200.234C143.758 200.227 145.398 200.156 147.305 199.812L147.445 200.828C145.422 201.156 143.727 201.25 141.039 201.25H139.977ZM167.695 190.703V200.891H166.461V195.562H163.602V194.547H166.461V190.703H167.695ZM156.242 198.109C158.289 197.391 159.773 195.555 159.773 193.562V192.844H156.633V191.828H164.117V192.844H161.008V193.562C161.008 195.359 162.398 197.102 164.43 197.797L163.789 198.781C162.227 198.211 161.016 197.047 160.414 195.609C159.812 197.219 158.531 198.492 156.883 199.109L156.242 198.109ZM158.773 204.281V199.969H160.008V203.25H168.086V204.281H158.773ZM182.211 197.797V198.812H176.555V201.656H175.336V198.812H169.492V197.797H182.211ZM171.117 204.281V200.281H172.352V203.25H180.789V204.281H171.117ZM171.148 196.203V191.375H180.555V196.203H171.148ZM172.352 195.219H179.336V192.344H172.352V195.219ZM193.586 190.688V196.344H195.836V197.375H193.586V204.578H192.367V190.688H193.586ZM182.93 200.969C186.516 199.188 188.469 196.508 188.75 193.219H183.57V192.188H189.992C189.984 196.117 188.141 199.703 183.617 201.938L182.93 200.969ZM207.164 190.688V196.422H209.273V197.453H207.164V204.578H205.93V190.688H207.164ZM196.117 200.734C198.211 198.586 199.062 196 199.219 193.234H196.555V192.203H200.383C200.367 195.508 199.625 198.773 197.102 201.438L196.117 200.734ZM200.102 201.672C202.273 199.219 202.922 196.133 203.039 193.234H200.82V192.203H204.195C204.188 195.5 203.703 199.336 201.102 202.359L200.102 201.672ZM214.461 194.953C214.469 197.312 216.18 199.711 218.227 200.594L217.539 201.562C215.914 200.828 214.516 199.227 213.867 197.305C213.219 199.344 211.812 201.109 210.227 201.906L209.492 200.938C211.484 199.984 213.219 197.359 213.227 194.953V193.141H209.945V192.125H217.773V193.141H214.461V194.953ZM219.711 204.578V190.688H220.945V204.578H219.711ZM225.102 202.266L223.883 206.516H222.727L223.586 202.266H225.102ZM241.148 195.375V196.391H231.57V191.406H232.789V195.375H241.148ZM229.93 199.516V198.484H242.648V199.516H236.836V204.578H235.617V199.516H229.93ZM254.242 191.594V192.812C254.242 194.125 254.242 195.57 253.844 197.562H255.914V198.578H250.18V204.609H248.945V198.578H243.258V197.562H252.602C253.023 195.562 253.023 194.109 253.023 192.812V192.609H244.852V191.594H254.242ZM269.586 196.234V197.266H267.336V204.578H266.117V190.688H267.336V196.234H269.586ZM257.164 201.047V192.062H258.383V200.016C260.414 200.016 262.484 199.859 264.773 199.375L264.93 200.422C262.531 200.906 260.375 201.047 258.273 201.047H257.164ZM276.867 199.344V200.859H283.602V199.344H284.805V204.391H275.648V199.344H276.867ZM273.445 196.781C276.086 196.781 279.578 196.781 282.633 196.391L282.711 197.266C281.453 197.477 280.156 197.602 278.883 197.68V199.766H277.664V197.742C276.203 197.797 274.82 197.797 273.617 197.797L273.445 196.781ZM274.07 194.953C276.094 194.484 277.5 193.227 277.508 191.734V191.031H278.758V191.734C278.758 193.156 280.18 194.328 282.18 194.766L281.648 195.703C280.023 195.336 278.75 194.484 278.141 193.32C277.555 194.562 276.281 195.5 274.633 195.922L274.07 194.953ZM276.867 203.391H283.602V201.828H276.867V203.391ZM283.586 198.672V190.703H284.805V198.672H283.586ZM298.648 190.688V204.578H297.477V190.688H298.648ZM286.773 200.688C289.789 198.898 291.305 196.391 291.539 193.484H287.367V192.469H292.758C292.758 193.836 292.539 195.156 292.062 196.391H294.555V191.062H295.727V203.875H294.555V197.391H291.609C290.773 199.008 289.43 200.438 287.492 201.578L286.773 200.688ZM307.43 191.344C309.289 191.336 310.711 192.422 310.977 194.016H313.883V190.688H315.117V198.141H313.883V195.031H310.984C310.742 196.672 309.312 197.766 307.43 197.766C305.312 197.766 303.812 196.453 303.82 194.547C303.812 192.664 305.312 191.336 307.43 191.344ZM304.992 194.547C304.992 195.812 306 196.727 307.43 196.734C308.828 196.727 309.836 195.812 309.836 194.547C309.836 193.266 308.828 192.375 307.43 192.391C306 192.375 304.992 193.266 304.992 194.547ZM306.164 204.391V198.844H307.398V200.609H313.883V198.844H315.117V204.391H306.164ZM307.398 203.391H313.883V201.594H307.398V203.391ZM329.633 198.766V199.781H323.836V204.578H322.633V199.781H316.914V198.766H329.633ZM318.555 196.875V191.469H327.977V196.875H318.555ZM319.758 195.906H326.758V192.469H319.758V195.906ZM334.805 191.703C336.984 191.711 338.531 193.039 338.539 194.969C338.531 196.906 336.984 198.227 334.805 198.234C332.609 198.227 331.047 196.906 331.055 194.969C331.047 193.039 332.609 191.711 334.805 191.703ZM330.336 200.5C332.898 200.508 336.438 200.484 339.508 200.031L339.602 200.938C336.422 201.531 333.008 201.547 330.508 201.547L330.336 200.5ZM332.258 194.969C332.25 196.266 333.32 197.156 334.805 197.156C336.273 197.156 337.344 196.266 337.336 194.969C337.344 193.68 336.273 192.781 334.805 192.781C333.32 192.781 332.25 193.68 332.258 194.969ZM340.43 204.609V190.688H341.648V204.609H340.43ZM359.102 192.766V193.781H347.727V192.766H352.82V190.922H354.023V192.766H359.102ZM347.102 202.984V201.969H350.461V199.398C349.43 198.961 348.859 198.242 348.867 197.297C348.852 195.641 350.594 194.68 353.43 194.688C356.242 194.68 358 195.641 357.992 197.297C358 198.242 357.414 198.961 356.383 199.398V201.969H359.82V202.984H347.102ZM350.102 197.297C350.086 198.305 351.359 198.914 353.43 198.922C355.477 198.914 356.75 198.305 356.742 197.297C356.75 196.266 355.477 195.656 353.43 195.656C351.359 195.656 350.086 196.266 350.102 197.297ZM351.695 201.969H355.18V199.742C354.656 199.844 354.07 199.891 353.43 199.891C352.797 199.891 352.211 199.844 351.695 199.75V201.969ZM366.758 190.859C369.844 190.859 371.656 191.719 371.664 193.266C371.656 194.828 369.844 195.68 366.758 195.688C363.656 195.68 361.836 194.828 361.836 193.266C361.836 191.719 363.656 190.859 366.758 190.859ZM360.43 197.531V196.531H373.086V197.531H369.555V198.906H371.461V202.016H363.211V203.453H371.883V204.422H361.992V201.109H370.258V199.844H361.961V198.906H363.883V197.531H360.43ZM363.117 193.266C363.102 194.219 364.453 194.734 366.758 194.75C369.062 194.734 370.406 194.219 370.414 193.266C370.406 192.352 369.062 191.812 366.758 191.797C364.453 191.812 363.102 192.352 363.117 193.266ZM365.086 198.906H368.336V197.531H365.086V198.906ZM380.086 190.938C383.172 190.938 384.984 191.789 384.992 193.328C384.984 194.906 383.172 195.758 380.086 195.766C376.984 195.758 375.164 194.906 375.164 193.328C375.164 191.789 376.984 190.938 380.086 190.938ZM373.758 197.703V196.703H386.414V197.703H373.758ZM375.289 199.844V198.906H384.789V202.016H376.539V203.453H385.211V204.422H375.32V201.109H383.586V199.844H375.289ZM376.445 193.328C376.43 194.297 377.781 194.828 380.086 194.828C382.391 194.828 383.734 194.297 383.742 193.328C383.734 192.414 382.391 191.867 380.086 191.859C377.781 191.867 376.43 192.414 376.445 193.328ZM108.859 220.281V221.266H104.547V223.031H110.266V224.047H97.6094V223.031H103.328V221.266H99.3438V217H100.562V220.281H108.859ZM98.9062 230.391V229.391H101.172V226.422H99.0312V225.438H108.875V226.422H106.719V229.391H108.984V230.391H98.9062ZM102.391 229.391H105.516V226.422H102.391V229.391ZM114.875 217.203C116.953 217.211 118.461 218.477 118.469 220.281C118.461 222.094 116.953 223.344 114.875 223.344C112.773 223.344 111.258 222.094 111.266 220.281C111.258 218.477 112.773 217.211 114.875 217.203ZM112.469 220.281C112.453 221.5 113.477 222.344 114.875 222.344C116.25 222.344 117.281 221.5 117.281 220.281C117.281 219.078 116.25 218.227 114.875 218.234C113.477 218.227 112.453 219.078 112.469 220.281ZM113.375 225.484V224.5H122.406V227.844H114.609V229.406H122.906V230.391H113.406V226.922H121.188V225.484H113.375ZM121.188 223.828V216.688H122.406V223.828H121.188ZM134.75 217.984C134.758 219.945 137.305 221.633 139.812 221.984L139.312 222.984C137.156 222.625 135.016 221.43 134.125 219.727C133.234 221.445 131.102 222.625 128.938 222.984L128.438 221.984C130.945 221.633 133.484 219.977 133.484 217.984V217.188H134.75V217.984ZM127.781 225.547V224.516H140.438V225.547H134.688V230.578H133.484V225.547H127.781ZM149.328 226.016C149.32 227.242 149.984 228.547 151.305 229.297C152.633 228.477 153.336 227.086 153.328 226.016V225.25H154.531V226.016C154.523 227.445 155.578 228.867 157.359 229.484L156.75 230.391C155.359 229.898 154.391 228.93 153.906 227.766C153.477 228.891 152.625 229.961 151.344 230.5C149.992 229.984 149.133 228.969 148.719 227.805C148.219 228.922 147.266 229.891 145.938 230.391L145.312 229.484C147.07 228.828 148.125 227.344 148.141 226.016V225.25H149.328V226.016ZM144.953 220.766C144.945 218.828 146.484 217.508 148.594 217.516C150.703 217.508 152.227 218.828 152.234 220.766C152.227 222.672 150.703 223.984 148.594 223.984C146.484 223.984 144.945 222.672 144.953 220.766ZM146.156 220.766C146.141 222.055 147.164 222.961 148.594 222.969C150.008 222.961 151.031 222.055 151.031 220.766C151.031 219.469 150.008 218.547 148.594 218.562C147.164 218.547 146.141 219.469 146.156 220.766ZM154.875 224.641V216.703H156.094V224.641H154.875ZM161.688 217.766C163.578 217.773 164.945 219.398 165.133 222H168.25V216.688H169.469V230.609H168.25V223.016H165.148C165.016 225.742 163.625 227.445 161.688 227.438C159.633 227.445 158.195 225.57 158.203 222.609C158.195 219.656 159.633 217.773 161.688 217.766ZM159.375 222.609C159.383 224.867 160.32 226.352 161.688 226.344C163.047 226.352 164 224.867 164 222.609C164 220.352 163.047 218.867 161.688 218.859C160.32 218.867 159.383 220.352 159.375 222.609ZM185.547 216.688V222.422H187.875V223.438H185.547V230.578H184.328V216.688H185.547ZM174.719 219.938V218.922H178.297V216.859H179.516V218.922H182.984V219.938H174.719ZM175.516 224.281C175.508 222.406 176.945 221.094 178.922 221.094C180.883 221.094 182.312 222.406 182.328 224.281C182.312 226.164 180.883 227.469 178.922 227.469C176.945 227.469 175.508 226.164 175.516 224.281ZM176.688 224.281C176.68 225.547 177.625 226.438 178.922 226.422C180.203 226.438 181.141 225.547 181.156 224.281C181.141 223.023 180.203 222.117 178.922 222.125C177.625 222.117 176.68 223.023 176.688 224.281ZM199.281 217.25V220.859H190.906V222.656H199.578V223.672H189.672V219.891H198.031V218.25H189.641V217.25H199.281ZM188.109 226.125V225.141H200.828V226.125H195.047V230.609H193.828V226.125H188.109ZM214.156 223.141V224.109H201.438V223.141H214.156ZM202.969 226.141V225.219H212.562V228.172H204.219V229.5H213.016V230.391H202.984V227.328H211.344V226.141H202.969ZM203.047 218V217.109H212.516V219.984H204.312V221.203H212.766V222.094H203.094V219.141H211.281V218H203.047ZM230.453 218.484V219.875H218.781V218.484H223.766V216.766H225.484V218.484H230.453ZM218.203 229.203V227.812H221.406V225.391C220.414 224.938 219.852 224.211 219.859 223.266C219.852 221.57 221.68 220.57 224.625 220.578C227.547 220.57 229.383 221.57 229.375 223.266C229.383 224.203 228.828 224.93 227.844 225.383V227.812H231.109V229.203H218.203ZM221.641 223.266C221.633 224.141 222.703 224.609 224.625 224.609C226.508 224.609 227.594 224.141 227.594 223.266C227.594 222.391 226.508 221.914 224.625 221.922C222.703 221.914 221.633 222.391 221.641 223.266ZM223.141 227.812H226.125V225.867C225.664 225.93 225.164 225.969 224.625 225.969C224.094 225.969 223.594 225.938 223.141 225.867V227.812ZM239.422 218.047V219.047C239.422 220.305 239.422 222.086 239.031 224.516L237.312 224.375C237.656 222.234 237.695 220.648 237.703 219.438H232.156V218.047H239.422ZM231.406 226.344C232.242 226.336 233.172 226.328 234.141 226.305V222.078H235.859V226.25C237.297 226.188 238.773 226.086 240.125 225.922L240.219 227.219C237.305 227.695 234.07 227.75 231.578 227.734L231.406 226.344ZM240.859 230.703V216.578H242.609V222.328H244.656V223.797H242.609V230.703H240.859ZM250.047 219C250.047 220.727 251.188 222.453 253.375 223.188L252.5 224.531C250.922 224.016 249.805 222.945 249.188 221.617C248.57 223.094 247.398 224.281 245.719 224.844L244.828 223.469C247.078 222.727 248.281 220.852 248.281 219.016V218.828H245.344V217.438H252.969V218.828H250.047V219ZM247.062 227.062V225.672H256.688V230.703H254.953V227.062H247.062ZM252.547 221.5V220.078H254.953V216.578H256.688V225H254.953V221.5H252.547ZM264.609 217.594C267.508 217.602 269.688 219.117 269.688 221.406C269.688 223.719 267.508 225.234 264.609 225.219C261.711 225.234 259.531 223.719 259.531 221.406C259.531 219.117 261.711 217.602 264.609 217.594ZM258.281 228.734V227.703H271V228.734H258.281ZM260.703 221.406C260.688 223.094 262.367 224.219 264.609 224.219C266.836 224.219 268.5 223.094 268.5 221.406C268.5 219.742 266.836 218.586 264.609 218.594C262.367 218.586 260.688 219.742 260.703 221.406ZM284.328 227.828V228.859H271.609V227.828H277.328V225.203H273.203V220.922H281.516V218.734H273.172V217.719H282.719V221.922H274.422V224.188H283.047V225.203H278.531V227.828H284.328ZM301.172 227.781V228.797H288.453V227.781H294.172V224.781H289.953V217.672H291.188V220.188H298.406V217.672H299.609V224.781H295.375V227.781H301.172ZM291.188 223.781H298.406V221.188H291.188V223.781ZM313.578 216.703V223.828H312.406V220.766H310.438V223.781H309.281V216.969H310.438V219.75H312.406V216.703H313.578ZM302.484 223.031V217.5H303.703V222.016C305.164 222.008 306.578 221.93 308.25 221.609L308.391 222.625C306.508 222.969 304.984 223.039 303.344 223.031H302.484ZM304.359 225.469V224.469H313.578V227.828H305.609V229.406H314.141V230.391H304.391V226.875H312.375V225.469H304.359ZM325.594 217.984C325.602 219.945 328.148 221.633 330.656 221.984L330.156 222.984C328 222.625 325.859 221.43 324.969 219.727C324.078 221.445 321.945 222.625 319.781 222.984L319.281 221.984C321.789 221.633 324.328 219.977 324.328 217.984V217.188H325.594V217.984ZM318.625 225.547V224.516H331.281V225.547H325.531V230.578H324.328V225.547H318.625ZM340.172 226.016C340.164 227.242 340.828 228.547 342.148 229.297C343.477 228.477 344.18 227.086 344.172 226.016V225.25H345.375V226.016C345.367 227.445 346.422 228.867 348.203 229.484L347.594 230.391C346.203 229.898 345.234 228.93 344.75 227.766C344.32 228.891 343.469 229.961 342.188 230.5C340.836 229.984 339.977 228.969 339.562 227.805C339.062 228.922 338.109 229.891 336.781 230.391L336.156 229.484C337.914 228.828 338.969 227.344 338.984 226.016V225.25H340.172V226.016ZM335.797 220.766C335.789 218.828 337.328 217.508 339.438 217.516C341.547 217.508 343.07 218.828 343.078 220.766C343.07 222.672 341.547 223.984 339.438 223.984C337.328 223.984 335.789 222.672 335.797 220.766ZM337 220.766C336.984 222.055 338.008 222.961 339.438 222.969C340.852 222.961 341.875 222.055 341.875 220.766C341.875 219.469 340.852 218.547 339.438 218.562C338.008 218.547 336.984 219.469 337 220.766ZM345.719 224.641V216.703H346.938V224.641H345.719ZM352.531 217.766C354.422 217.773 355.789 219.398 355.977 222H359.094V216.688H360.312V230.609H359.094V223.016H355.992C355.859 225.742 354.469 227.445 352.531 227.438C350.477 227.445 349.039 225.57 349.047 222.609C349.039 219.656 350.477 217.773 352.531 217.766ZM350.219 222.609C350.227 224.867 351.164 226.352 352.531 226.344C353.891 226.352 354.844 224.867 354.844 222.609C354.844 220.352 353.891 218.867 352.531 218.859C351.164 218.867 350.227 220.352 350.219 222.609ZM374.844 227.766V228.797H362.125V227.766H365.281V224.023C364.094 223.406 363.375 222.406 363.375 221.141C363.375 218.992 365.484 217.578 368.453 217.562C371.422 217.578 373.531 218.992 373.531 221.141C373.531 222.383 372.836 223.367 371.688 223.984V227.766H374.844ZM364.562 221.141C364.555 222.695 366.172 223.734 368.453 223.734C370.711 223.734 372.344 222.695 372.344 221.141C372.344 219.586 370.711 218.562 368.453 218.578C366.172 218.562 364.555 219.586 364.562 221.141ZM366.484 227.766H370.453V224.461C369.852 224.617 369.18 224.703 368.453 224.703C367.742 224.703 367.078 224.625 366.484 224.469V227.766ZM376.922 229.406C376.375 229.398 375.906 228.945 375.922 228.391C375.906 227.844 376.375 227.391 376.922 227.391C377.477 227.391 377.93 227.844 377.922 228.391C377.93 228.945 377.477 229.398 376.922 229.406Z" fill="white"/>
<defs>
<linearGradient id="paint0_linear_1667_26984" x1="292.225" y1="94.4627" x2="241.995" y2="71.9527" gradientUnits="userSpaceOnUse">
<stop stop-color="#F0F6FF"/>
<stop offset="1" stop-color="#F0F6FF" stop-opacity="0"/>
</linearGradient>
<linearGradient id="paint1_linear_1667_26984" x1="288.665" y1="102.413" x2="238.435" y2="79.9026" gradientUnits="userSpaceOnUse">
<stop stop-color="#F0F6FF"/>
<stop offset="1" stop-color="#F0F6FF" stop-opacity="0"/>
</linearGradient>
<clipPath id="clip0_1667_26984">
<rect width="57.87" height="80" fill="white" transform="translate(209.065 40.3125)"/>
</clipPath>
</defs>
</svg>
