<svg width="516" height="317" viewBox="0 0 516 317" fill="none" xmlns="http://www.w3.org/2000/svg">
<g filter="url(#filter0_d_1667_27014)">
<rect x="20" y="18.3125" width="476" height="276" rx="16" fill="white" shape-rendering="crispEdges"/>
<g clip-path="url(#clip0_1667_27014)">
<path d="M253.08 103.112L262.49 97.6424L249.66 96.9724L240.25 102.442L253.08 103.112Z" fill="#2445BC"/>
<path d="M265.83 130.112L275.24 124.642L275.28 111.752L265.87 117.222L265.83 130.112Z" fill="#2445BC"/>
<path d="M265.87 117.223L275.28 111.753L262.49 97.6426L253.08 103.113L265.87 117.223Z" fill="#2445BC"/>
<path d="M253.08 103.112L240.25 102.442L240.21 115.322L253.04 115.992L265.83 130.112L265.87 117.222L253.08 103.112Z" fill="#2F58CC"/>
<path d="M253.11 90.2325L262.53 84.7625L249.7 84.0825L240.28 89.5525L253.11 90.2325Z" fill="#4069DB"/>
<path d="M265.87 117.233L275.28 111.763L275.32 98.8726L265.9 104.343L265.87 117.233Z" fill="#4069DB"/>
<path d="M265.9 104.342L275.32 98.8725L262.53 84.7625L253.11 90.2325L265.9 104.342Z" fill="#4069DB"/>
<path d="M253.11 90.2325L240.28 89.5525L240.25 102.442L253.08 103.112L265.87 117.232L265.9 104.342L253.11 90.2325Z" fill="#5481E2"/>
<path d="M253.15 77.3524L262.56 71.8824L249.73 71.2024L240.32 76.6724L253.15 77.3524Z" fill="#8DAAF1"/>
<path d="M253.15 77.3526L240.32 76.6726L240.28 89.5526L253.11 90.2226L265.9 104.343L265.94 91.4526L253.15 77.3526Z" fill="#A2BDF4"/>
<path d="M265.9 104.342L275.32 98.8724L275.35 85.9824L265.94 91.4524L265.9 104.342Z" fill="#8DAAF1"/>
<path d="M265.94 91.4526L275.35 85.9826L262.56 71.8826L253.15 77.3526L265.94 91.4526Z" fill="#8DAAF1"/>
<path d="M253.19 64.4625L262.6 58.9825L249.77 58.3125L240.36 63.7825L253.19 64.4625Z" fill="#E4ECF9"/>
<path d="M265.94 91.4625L275.35 85.9925L275.39 73.1025L265.98 78.5725L265.94 91.4625Z" fill="#CDDDF7"/>
<path d="M265.98 78.5724L275.39 73.1024L262.6 58.9824L253.19 64.4624L265.98 78.5724Z" fill="#D9E4F4"/>
<path d="M253.19 64.4625L240.36 63.7825L240.32 76.6725L253.15 77.3525L265.94 91.4625L265.98 78.5725L253.19 64.4625Z" fill="#F0F6FF"/>
<g style="mix-blend-mode:multiply" opacity="0.67">
<path d="M265.83 130.113L275.24 124.643L275.28 73.1025L265.87 78.5725L265.83 130.113Z" fill="url(#paint0_linear_1667_27014)"/>
</g>
<path style="mix-blend-mode:screen" opacity="0.6" d="M240.25 102.442L240.28 89.5525H240.29L240.32 76.6725L240.36 63.7825L253.19 64.4625L265.98 78.5725L265.94 91.4625L265.9 108.842L265.89 108.822L265.87 117.222L265.83 130.112L253.04 115.992L240.21 115.322L240.25 102.442Z" fill="url(#paint1_linear_1667_27014)"/>
<g style="mix-blend-mode:multiply" opacity="0.54">
<path d="M242.232 121.445C240.942 122.194 245.166 125.878 251.662 129.666C258.158 133.462 264.471 135.928 265.768 135.178C267.058 134.428 262.841 130.745 256.338 126.957C249.841 123.168 243.522 120.701 242.232 121.445Z" fill="#E0E0E0"/>
</g>
</g>
<path d="M179.852 164.727V166.953H177.062V169.766H179.711V171.992H163.984V169.766H166.609V166.953H163.844V164.727H179.852ZM162.133 175.461V173.117H181.586V175.461H162.133ZM164.383 178.836V176.68H179.219V181.953H167.336V183.125H179.781V185.328H164.406V179.914H176.266V178.836H164.383ZM169.609 169.766H174.062V166.953H169.609V169.766ZM200.258 164.141V185.516H197.281V164.141H200.258ZM183.5 168.336V165.922H193.648V174.148H186.617V178.062C189.875 178.039 192.629 177.875 195.758 177.359L196.016 179.773C192.512 180.395 189.336 180.523 185.445 180.523H183.523V171.781H190.602V168.336H183.5ZM215.016 166.016V168.43H212.93V177.863C213.82 177.805 214.688 177.723 215.531 177.617L215.719 179.773C211.383 180.535 206.461 180.605 202.805 180.617L202.523 178.156C203.273 178.156 204.094 178.145 204.938 178.145V168.43H203.109V166.016H215.016ZM207.844 178.098C208.57 178.086 209.309 178.062 210.047 178.027V168.43H207.844V178.098ZM214.383 174.289V171.898H217.664V164.141H220.617V185.469H217.664V174.289H214.383ZM233.734 165.898V176.141H223.492V165.898H233.734ZM225.953 185.094V178.18H228.93V182.703H240.555V185.094H225.953ZM226.445 173.797H230.781V168.289H226.445V173.797ZM236.781 179.703V164.141H239.781V170.281H242.664V172.742H239.781V179.703H236.781ZM250.016 165.57C253.402 165.559 255.91 167.738 255.922 170.797C255.91 173.867 253.402 176.035 250.016 176.047C246.652 176.035 244.074 173.867 244.086 170.797C244.074 167.738 246.652 165.559 250.016 165.57ZM243.195 178.719C247.004 178.73 252.277 178.684 256.836 178.039L257.07 180.195C252.336 181.121 247.273 181.156 243.547 181.156L243.195 178.719ZM247.062 170.797C247.051 172.484 248.328 173.457 250.016 173.445C251.715 173.457 253.004 172.484 253.016 170.797C253.004 169.133 251.715 168.148 250.016 168.148C248.328 168.148 247.051 169.133 247.062 170.797ZM258.055 185.516V164.141H261.031V185.516H258.055ZM286.094 164.727V166.953H283.305V169.766H285.953V171.992H270.227V169.766H272.852V166.953H270.086V164.727H286.094ZM268.375 175.461V173.117H287.828V175.461H268.375ZM270.625 178.836V176.68H285.461V181.953H273.578V183.125H286.023V185.328H270.648V179.914H282.508V178.836H270.625ZM275.852 169.766H280.305V166.953H275.852V169.766ZM306.477 164.164V176.047H303.477V164.164H306.477ZM289.719 167.492V165.102H299.609V171.453H292.672V173.234C296.234 173.211 298.754 173.141 301.625 172.648L302 175.039C298.73 175.59 295.848 175.672 291.617 175.672H289.742V169.18H296.633V167.492H289.719ZM292.203 185.234V176.938H295.18V178.766H303.5V176.938H306.477V185.234H292.203ZM295.18 182.844H303.5V181.086H295.18V182.844ZM331.82 164.141V185.469H328.797V164.141H331.82ZM313.961 179.422C319.469 176.82 321.895 173.445 322.375 168.711H315.109V166.367H325.422C325.41 172.836 323.148 178.215 315.531 181.812L313.961 179.422ZM351.43 169.484V171.875H336.594V164.469H339.57V169.484H351.43ZM334.133 176.141V173.703H353.633V176.141H334.133ZM336.359 181.438C336.359 178.918 339.172 177.488 343.836 177.477C348.465 177.488 351.242 178.918 351.266 181.438C351.242 183.98 348.465 185.398 343.836 185.398C339.172 185.398 336.359 183.98 336.359 181.438ZM339.406 181.438C339.395 182.551 340.883 183.113 343.836 183.125C346.73 183.113 348.254 182.551 348.266 181.438C348.254 180.301 346.73 179.82 343.836 179.797C340.883 179.82 339.395 180.301 339.406 181.438Z" fill="black"/>
<path d="M147.133 208.922V210.406H145.273V212.281H147.039V213.766H136.555V212.281H138.305V210.406H136.461V208.922H147.133ZM135.32 216.078V214.516H148.289V216.078H135.32ZM136.82 218.328V216.891H146.711V220.406H138.789V221.188H147.086V222.656H136.836V219.047H144.742V218.328H136.82ZM140.305 212.281H143.273V210.406H140.305V212.281ZM160.57 208.531V222.781H158.586V208.531H160.57ZM149.398 211.328V209.719H156.164V215.203H151.477V217.812C153.648 217.797 155.484 217.688 157.57 217.344L157.742 218.953C155.406 219.367 153.289 219.453 150.695 219.453H149.414V213.625H154.133V211.328H149.398ZM170.242 209.781V211.391H168.852V217.68C169.445 217.641 170.023 217.586 170.586 217.516L170.711 218.953C167.82 219.461 164.539 219.508 162.102 219.516L161.914 217.875C162.414 217.875 162.961 217.867 163.523 217.867V211.391H162.305V209.781H170.242ZM165.461 217.836C165.945 217.828 166.438 217.812 166.93 217.789V211.391H165.461V217.836ZM169.82 215.297V213.703H172.008V208.531H173.977V222.75H172.008V215.297H169.82ZM186.852 212.406V213.969H176.914V209.031H178.898V212.406H186.852ZM175.289 217.062V215.5H188.305V217.062H175.289ZM176.789 222.438V218.219H178.789V220.844H186.945V222.438H176.789ZM197.055 211.75C197.047 214.297 198.133 216.867 200.414 217.969L199.211 219.562C197.688 218.805 196.656 217.398 196.07 215.688C195.445 217.523 194.352 219.031 192.742 219.828L191.508 218.219C193.922 217.109 195.055 214.391 195.055 211.75V209.625H197.055V211.75ZM201.039 222.75V208.531H203.039V214.016H205.133V215.703H203.039V222.75H201.039ZM218.117 215.266V216.859H205.148V215.266H208.07V213.562C207.031 213.102 206.445 212.398 206.445 211.484C206.445 209.766 208.469 208.742 211.633 208.734C214.773 208.742 216.797 209.766 216.805 211.484C216.797 212.414 216.195 213.125 215.133 213.578V215.266H218.117ZM206.633 220.156C206.633 218.516 208.5 217.602 211.617 217.609C214.688 217.602 216.555 218.516 216.57 220.156C216.555 221.836 214.688 222.734 211.617 222.734C208.5 222.734 206.633 221.836 206.633 220.156ZM208.523 211.484C208.508 212.266 209.625 212.664 211.633 212.656C213.617 212.664 214.742 212.266 214.742 211.484C214.742 210.688 213.617 210.266 211.633 210.266C209.625 210.266 208.508 210.688 208.523 211.484ZM208.664 220.156C208.656 220.883 209.648 221.25 211.617 221.25C213.547 221.25 214.562 220.883 214.57 220.156C214.562 219.453 213.547 219.117 211.617 219.109C209.648 219.117 208.656 219.453 208.664 220.156ZM210.086 215.266H213.148V214.07C212.68 214.133 212.172 214.156 211.633 214.156C211.078 214.156 210.562 214.125 210.086 214.07V215.266ZM223.727 212.406C223.719 214.57 224.875 217.07 227.211 218.156L226.102 219.719C224.516 218.992 223.391 217.539 222.75 215.836C222.117 217.711 220.945 219.305 219.305 220.078L218.148 218.5C220.516 217.398 221.711 214.758 221.727 212.406V211.531H218.711V209.906H226.586V211.531H223.727V212.406ZM227.695 222.75V208.531H229.695V213.953H231.789V215.625H229.695V222.75H227.695ZM236.414 209.484C238.672 209.477 240.344 210.93 240.352 212.969C240.344 215.016 238.672 216.461 236.414 216.469C234.172 216.461 232.453 215.016 232.461 212.969C232.453 210.93 234.172 209.477 236.414 209.484ZM231.867 218.25C234.406 218.258 237.922 218.227 240.961 217.797L241.117 219.234C237.961 219.852 234.586 219.875 232.102 219.875L231.867 218.25ZM234.445 212.969C234.438 214.094 235.289 214.742 236.414 214.734C237.547 214.742 238.406 214.094 238.414 212.969C238.406 211.859 237.547 211.203 236.414 211.203C235.289 211.203 234.438 211.859 234.445 212.969ZM241.773 222.781V208.531H243.758V222.781H241.773ZM252.289 209.141C254.102 209.125 255.547 210.164 255.938 211.688H258.32V208.531H260.305V216.172H258.32V213.281H255.945C255.578 214.844 254.117 215.906 252.289 215.906C250.102 215.906 248.492 214.484 248.508 212.5C248.492 210.555 250.102 209.125 252.289 209.141ZM250.398 212.5C250.391 213.562 251.172 214.234 252.289 214.234C253.367 214.234 254.141 213.562 254.148 212.5C254.141 211.438 253.367 210.789 252.289 210.797C251.172 210.789 250.391 211.438 250.398 212.5ZM250.82 222.594V216.797H252.789V218.172H258.32V216.797H260.305V222.594H250.82ZM252.789 220.984H258.32V219.703H252.789V220.984ZM274.648 216.484V218.078H269.086V222.734H267.117V218.078H261.633V216.484H274.648ZM263.164 214.953V209.219H273.086V214.953H263.164ZM265.133 213.391H271.102V210.797H265.133V213.391ZM289.695 212.094V213.688H279.805V208.75H281.789V212.094H289.695ZM278.164 216.531V214.906H291.164V216.531H278.164ZM279.648 220.062C279.648 218.383 281.523 217.43 284.633 217.422C287.719 217.43 289.57 218.383 289.586 220.062C289.57 221.758 287.719 222.703 284.633 222.703C281.523 222.703 279.648 221.758 279.648 220.062ZM281.68 220.062C281.672 220.805 282.664 221.18 284.633 221.188C286.562 221.18 287.578 220.805 287.586 220.062C287.578 219.305 286.562 218.984 284.633 218.969C282.664 218.984 281.672 219.305 281.68 220.062ZM298.32 209.359V213.797H294.023V215.312C296.133 215.312 297.398 215.242 298.836 214.969L299.023 216.562C297.359 216.859 295.867 216.898 293.117 216.906H292.055V212.312H296.32V210.922H292.023V209.359H298.32ZM293.68 219.531V217.938H303.477V222.75H301.492V219.531H293.68ZM299.133 215.109V213.531H301.492V212.094H299.133V210.516H301.492V208.547H303.477V217.297H301.492V215.109H299.133ZM321.133 210.609V212.219H319.289V213.672H321.133V215.297H319.289V217.562H317.289V208.531H319.289V210.609H321.133ZM308.008 211.438V209.891H311.242V208.453H313.227V209.891H316.445V211.438H308.008ZM308.695 214.484C308.695 212.969 310.133 211.93 312.227 211.922C314.297 211.93 315.727 212.969 315.727 214.484C315.727 216.016 314.297 217.031 312.227 217.031C310.141 217.031 308.695 216.016 308.695 214.484ZM309.836 220.234C309.82 218.633 311.656 217.695 314.648 217.688C317.57 217.695 319.438 218.633 319.445 220.234C319.438 221.797 317.57 222.758 314.648 222.75C311.656 222.758 309.82 221.797 309.836 220.234ZM310.648 214.484C310.641 215.188 311.273 215.555 312.227 215.547C313.188 215.555 313.836 215.188 313.836 214.484C313.836 213.773 313.188 213.383 312.227 213.375C311.273 213.383 310.641 213.773 310.648 214.484ZM311.805 220.234C311.797 220.898 312.781 221.266 314.648 221.266C316.461 221.266 317.445 220.898 317.445 220.234C317.445 219.523 316.461 219.211 314.648 219.203C312.781 219.211 311.797 219.523 311.805 220.234ZM326.523 210.766C326.516 212.492 327.523 214.148 329.773 214.844L328.711 216.391C327.203 215.891 326.148 214.922 325.539 213.68C324.922 215.109 323.82 216.234 322.195 216.781L321.117 215.219C323.492 214.43 324.508 212.539 324.523 210.578V209.281H326.523V210.766ZM323.086 220C323.078 218.273 324.961 217.25 327.961 217.25C330.906 217.25 332.75 218.273 332.758 220C332.75 221.742 330.906 222.758 327.961 222.75C324.961 222.758 323.078 221.742 323.086 220ZM325.086 220C325.07 220.805 326.094 221.188 327.961 221.188C329.805 221.188 330.789 220.805 330.789 220C330.789 219.227 329.805 218.812 327.961 218.812C326.094 218.812 325.07 219.227 325.086 220ZM330.617 216.969V208.531H332.617V211.859H334.539V213.516H332.617V216.969H330.617ZM341.148 208.734C344.422 208.734 346.312 209.594 346.32 211.156C346.312 212.742 344.422 213.594 341.148 213.594C337.867 213.594 335.961 212.742 335.961 211.156C335.961 209.594 337.867 208.734 341.148 208.734ZM334.664 215.844V214.266H347.633V215.844H334.664ZM336.164 218.125V216.672H346.055V220.297H338.133V221.156H346.43V222.656H336.18V218.906H344.086V218.125H336.164ZM338.055 211.156C338.047 211.852 339.062 212.125 341.148 212.125C343.25 212.125 344.258 211.852 344.258 211.156C344.258 210.523 343.25 210.188 341.148 210.188C339.062 210.188 338.047 210.523 338.055 211.156ZM355.82 209.125C357.992 209.109 359.57 210.352 359.57 212.141C359.57 213.914 357.992 215.172 355.82 215.156C353.656 215.172 352.078 213.914 352.086 212.141C352.078 210.352 353.656 209.109 355.82 209.125ZM351.211 216.031C353.734 216.023 357.305 215.977 360.336 215.516L360.461 216.984C359.289 217.219 358.086 217.367 356.898 217.461V222.328H354.914V217.578C353.664 217.633 352.484 217.641 351.461 217.656L351.211 216.031ZM354.008 212.141C354 213.031 354.758 213.547 355.82 213.531C356.914 213.547 357.68 213.031 357.68 212.141C357.68 211.234 356.914 210.711 355.82 210.719C354.758 210.711 354 211.234 354.008 212.141ZM361.195 222.75V208.547H363.164V222.75H361.195ZM371.367 210.703V212.281H364.492V210.703H366.961V208.922H368.93V210.703H371.367ZM364.82 216.297C364.82 214.32 366.148 212.93 367.961 212.922C369.781 212.93 371.078 214.32 371.086 216.297C371.078 218.281 369.781 219.688 367.961 219.688C366.148 219.688 364.82 218.281 364.82 216.297ZM366.57 216.297C366.57 217.383 367.133 218 367.961 218C368.758 218 369.328 217.383 369.336 216.297C369.328 215.227 368.758 214.578 367.961 214.578C367.133 214.578 366.57 215.227 366.57 216.297ZM371.898 222.141V208.812H373.758V214.312H374.914V208.531H376.805V222.75H374.914V215.906H373.758V222.141H371.898ZM146.133 238.109C146.125 240.414 146.766 242.789 148.711 244.031L147.633 245.578C146.398 244.836 145.625 243.602 145.172 242.148C144.664 243.758 143.812 245.109 142.523 245.891L141.305 244.422C143.414 243.117 144.195 240.609 144.195 238.203V235.75H146.133V238.109ZM147.211 240.953V239.328H149.055V234.734H150.914V248.094H149.055V240.953H147.211ZM151.992 248.75V234.531H153.898V248.75H151.992ZM162.398 235.609C162.398 239.586 160.695 242.281 155.898 243.812L155.133 242.281C157.172 241.625 158.477 240.812 159.266 239.828L155.414 240.141L155.133 238.562L160.047 238.391C160.172 238.023 160.25 237.625 160.297 237.219H155.852V235.609H162.398ZM157.523 248.5V244.016H159.539V246.906H167.242V248.5H157.523ZM162.32 240.453V238.844H164.898V234.547H166.883V245.031H164.898V240.453H162.32ZM179.82 241.109V242.703H169.758V235.719H179.711V237.328H171.727V241.109H179.82ZM168.227 247.016V245.375H181.242V247.016H168.227ZM197.758 245.406V247.031H184.742V245.406H197.758ZM186.117 243.031V235.438H188.117V237.797H194.32V235.438H196.305V243.031H186.117ZM188.117 241.469H194.32V239.344H188.117V241.469ZM203.508 235.953V241.344H200.383V243.766C201.773 243.75 203.078 243.68 204.555 243.406L204.727 245.031C202.859 245.375 201.266 245.406 199.477 245.422H198.477V239.766H201.586V237.531H198.461V235.953H203.508ZM204.102 241V239.391H205.555V234.797H207.414V248.062H205.555V241H204.102ZM208.477 248.75V234.531H210.367V248.75H208.477ZM223.305 234.547V244.766H221.305V234.547H223.305ZM211.617 239.031C211.617 236.945 213.32 235.445 215.508 235.453C217.688 235.445 219.391 236.945 219.398 239.031C219.391 241.148 217.688 242.641 215.508 242.641C213.32 242.641 211.617 241.148 211.617 239.031ZM213.57 239.031C213.555 240.219 214.391 240.906 215.508 240.906C216.586 240.906 217.422 240.219 217.43 239.031C217.422 237.875 216.586 237.18 215.508 237.188C214.391 237.18 213.555 237.875 213.57 239.031ZM213.773 248.5V243.734H215.789V246.906H223.68V248.5H213.773ZM239.898 243.578V248.75H237.914V245.141H230.133V243.578H239.898ZM228.102 238.766C228.086 236.75 229.727 235.281 231.883 235.297C233.031 235.289 234.039 235.719 234.719 236.438H237.914V234.531H239.898V242.938H237.914V241.141H234.719C234.039 241.875 233.031 242.305 231.883 242.312C229.727 242.305 228.086 240.836 228.102 238.766ZM229.992 238.766C229.984 239.93 230.773 240.609 231.883 240.609C232.93 240.609 233.734 239.93 233.742 238.766C233.734 237.656 232.93 236.969 231.883 236.969C230.773 236.969 229.984 237.656 229.992 238.766ZM235.547 239.547H237.914V238.047H235.555C235.609 238.273 235.633 238.516 235.633 238.766C235.633 239.039 235.602 239.297 235.547 239.547ZM252.523 234.5V237.594H254.445V239.188H252.523V242.203H250.523V234.5H252.523ZM241.242 237.109V235.594H244.477V234.438H246.461V235.594H249.68V237.109H241.242ZM241.93 239.781C241.93 238.359 243.344 237.461 245.461 237.453C247.594 237.461 248.961 238.359 248.961 239.781C248.961 241.234 247.594 242.102 245.461 242.109C243.344 242.102 241.93 241.234 241.93 239.781ZM243.086 244.219V242.781H252.523V246.375H245.07V247.188H252.93V248.656H243.117V245.016H250.539V244.219H243.086ZM243.883 239.781C243.875 240.391 244.477 240.68 245.461 240.688C246.453 240.68 247.07 240.391 247.07 239.781C247.07 239.18 246.453 238.852 245.461 238.859C244.477 238.852 243.875 239.18 243.883 239.781ZM261.055 234.734C264.328 234.734 266.219 235.594 266.227 237.156C266.219 238.742 264.328 239.594 261.055 239.594C257.773 239.594 255.867 238.742 255.867 237.156C255.867 235.594 257.773 234.734 261.055 234.734ZM254.57 241.844V240.266H267.539V241.844H254.57ZM256.07 244.125V242.672H265.961V246.297H258.039V247.156H266.336V248.656H256.086V244.906H263.992V244.125H256.07ZM257.961 237.156C257.953 237.852 258.969 238.125 261.055 238.125C263.156 238.125 264.164 237.852 264.164 237.156C264.164 236.523 263.156 236.188 261.055 236.188C258.969 236.188 257.953 236.523 257.961 237.156ZM278.633 235.641C278.625 237.32 280.344 239.172 283.602 239.578L282.82 241.188C280.336 240.828 278.516 239.68 277.586 238.141C276.648 239.672 274.836 240.828 272.383 241.188L271.586 239.578C274.82 239.172 276.531 237.32 276.539 235.641V234.953H278.633V235.641ZM271.086 243.891V242.266H284.055V243.891H278.523V248.75H276.555V243.891H271.086ZM296.633 234.531V243.453H294.742V239.672H293.602V242.984H291.742V234.797H293.602V238.047H294.742V234.531H296.633ZM284.336 237.547V236H286.852V234.656H288.836V236H291.32V237.547H284.336ZM284.773 240.5C284.766 239.008 286.07 238.016 287.852 238.016C289.656 238.016 290.953 239.008 290.961 240.5C290.953 241.977 289.656 242.961 287.852 242.969C286.07 242.961 284.766 241.977 284.773 240.5ZM286.555 240.5C286.547 241.156 287.07 241.555 287.852 241.547C288.625 241.555 289.156 241.156 289.164 240.5C289.156 239.836 288.625 239.445 287.852 239.453C287.078 239.445 286.547 239.836 286.555 240.5ZM286.852 246.172C286.844 244.523 288.711 243.586 291.773 243.578C294.844 243.586 296.695 244.523 296.711 246.172C296.695 247.812 294.844 248.758 291.773 248.75C288.711 248.758 286.844 247.812 286.852 246.172ZM288.852 246.172C288.836 246.891 289.844 247.25 291.773 247.25C293.711 247.25 294.695 246.891 294.695 246.172C294.695 245.422 293.711 245.07 291.773 245.078C289.844 245.07 288.836 245.422 288.852 246.172ZM309.023 234.5V237.594H310.945V239.188H309.023V242.203H307.023V234.5H309.023ZM297.742 237.109V235.594H300.977V234.438H302.961V235.594H306.18V237.109H297.742ZM298.43 239.781C298.43 238.359 299.844 237.461 301.961 237.453C304.094 237.461 305.461 238.359 305.461 239.781C305.461 241.234 304.094 242.102 301.961 242.109C299.844 242.102 298.43 241.234 298.43 239.781ZM299.586 244.219V242.781H309.023V246.375H301.57V247.188H309.43V248.656H299.617V245.016H307.039V244.219H299.586ZM300.383 239.781C300.375 240.391 300.977 240.68 301.961 240.688C302.953 240.68 303.57 240.391 303.57 239.781C303.57 239.18 302.953 238.852 301.961 238.859C300.977 238.852 300.375 239.18 300.383 239.781ZM321.805 235.641C321.797 237.32 323.516 239.172 326.773 239.578L325.992 241.188C323.508 240.828 321.688 239.68 320.758 238.141C319.82 239.672 318.008 240.828 315.555 241.188L314.758 239.578C317.992 239.172 319.703 237.32 319.711 235.641V234.953H321.805V235.641ZM314.258 243.891V242.266H327.227V243.891H321.695V248.75H319.727V243.891H314.258ZM335.945 243.656C335.945 244.797 336.43 245.984 337.578 246.766C338.758 245.93 339.273 244.711 339.273 243.656V243.172H341.242V243.656C341.227 245.141 342.016 246.508 343.914 247.094L342.945 248.547C341.586 248.086 340.695 247.219 340.203 246.117C339.734 247.219 338.906 248.172 337.633 248.672C336.297 248.188 335.461 247.266 335 246.172C334.492 247.227 333.617 248.086 332.32 248.547L331.336 247.094C333.203 246.453 334 245.039 334.008 243.656V243.172H335.945V243.656ZM330.992 238.688C330.992 236.672 332.664 235.266 334.883 235.266C337.094 235.266 338.766 236.672 338.773 238.688C338.766 240.664 337.094 242.086 334.883 242.078C332.664 242.086 330.992 240.664 330.992 238.688ZM332.945 238.688C332.93 239.758 333.742 240.43 334.883 240.422C335.992 240.43 336.797 239.758 336.805 238.688C336.797 237.586 335.992 236.938 334.883 236.938C333.742 236.938 332.93 237.586 332.945 238.688ZM340.68 242.578V234.547H342.68V242.578H340.68ZM348.023 235.531C349.945 235.531 351.383 237.109 351.664 239.672H354.133V234.531H356.102V248.781H354.133V241.266H351.688C351.477 244 350.008 245.672 348.023 245.672C345.867 245.672 344.32 243.719 344.336 240.594C344.32 237.492 345.867 235.531 348.023 235.531ZM346.242 240.594C346.234 242.711 346.961 243.867 348.023 243.859C349.094 243.867 349.805 242.711 349.805 240.594C349.805 238.484 349.094 237.328 348.023 237.328C346.961 237.328 346.234 238.484 346.242 240.594ZM370.445 245.453V247.094H357.43V245.453H360.336V241.969C359.234 241.305 358.57 240.297 358.57 239.047C358.57 236.742 360.82 235.227 363.914 235.219C366.992 235.227 369.266 236.742 369.273 239.047C369.266 240.273 368.625 241.266 367.555 241.93V245.453H370.445ZM360.539 239.047C360.539 240.438 361.875 241.297 363.914 241.297C365.922 241.297 367.297 240.438 367.305 239.047C367.297 237.617 365.922 236.789 363.914 236.797C361.875 236.789 360.539 237.617 360.539 239.047ZM362.305 245.453H365.539V242.688C365.031 242.789 364.484 242.844 363.914 242.844C363.344 242.844 362.805 242.789 362.305 242.695V245.453ZM372.602 247.453C371.867 247.453 371.273 246.867 371.289 246.141C371.273 245.422 371.867 244.836 372.602 244.844C373.297 244.836 373.898 245.422 373.898 246.141C373.898 246.867 373.297 247.453 372.602 247.453Z" fill="#525252"/>
</g>
<defs>
<filter id="filter0_d_1667_27014" x="0" y="0.3125" width="516" height="316" filterUnits="userSpaceOnUse" color-interpolation-filters="sRGB">
<feFlood flood-opacity="0" result="BackgroundImageFix"/>
<feColorMatrix in="SourceAlpha" type="matrix" values="0 0 0 0 0 0 0 0 0 0 0 0 0 0 0 0 0 0 127 0" result="hardAlpha"/>
<feOffset dy="2"/>
<feGaussianBlur stdDeviation="10"/>
<feComposite in2="hardAlpha" operator="out"/>
<feColorMatrix type="matrix" values="0 0 0 0 0 0 0 0 0 0 0 0 0 0 0 0 0 0 0.15 0"/>
<feBlend mode="normal" in2="BackgroundImageFix" result="effect1_dropShadow_1667_27014"/>
<feBlend mode="normal" in="SourceGraphic" in2="effect1_dropShadow_1667_27014" result="shape"/>
</filter>
<linearGradient id="paint0_linear_1667_27014" x1="275.19" y1="167.613" x2="266.56" y2="44.7225" gradientUnits="userSpaceOnUse">
<stop stop-color="#5E88E4"/>
<stop offset="1" stop-color="#648DE5" stop-opacity="0"/>
</linearGradient>
<linearGradient id="paint1_linear_1667_27014" x1="239.75" y1="28.0725" x2="256.5" y2="114.532" gradientUnits="userSpaceOnUse">
<stop stop-color="#F0F6FF"/>
<stop offset="1" stop-color="#F0F6FF" stop-opacity="0"/>
</linearGradient>
<clipPath id="clip0_1667_27014">
<rect width="36.64" height="80" fill="white" transform="translate(239.68 58.3125)"/>
</clipPath>
</defs>
</svg>
