<svg width="91" height="24" viewBox="0 0 91 24" fill="none" xmlns="http://www.w3.org/2000/svg">
<g clip-path="url(#clip0_518_3871)">
<path d="M35.92 14.85V19.64C35.8 19.69 35.63 19.73 35.43 19.77C35.23 19.81 35 19.83 34.76 19.83C34.28 19.83 33.94 19.74 33.73 19.56C33.52 19.38 33.42 19.09 33.42 18.67V6.73001C33.42 6.47001 33.49 6.26001 33.64 6.12001C33.79 5.98001 33.99 5.86001 34.25 5.79001C34.73 5.62001 35.3 5.51001 35.96 5.44001C36.62 5.37001 37.25 5.35001 37.83 5.35001C39.83 5.35001 41.32 5.77001 42.28 6.62001C43.24 7.47001 43.72 8.62001 43.72 10.06C43.72 11.5 43.24 12.67 42.28 13.54C41.32 14.41 39.88 14.85 37.97 14.85H35.91H35.92ZM37.81 12.84C38.87 12.84 39.71 12.61 40.32 12.15C40.93 11.69 41.23 10.99 41.23 10.07C41.23 9.15001 40.94 8.47001 40.36 8.04001C39.78 7.61001 38.95 7.39001 37.87 7.39001C37.52 7.39001 37.16 7.41001 36.82 7.44001C36.47 7.47001 36.16 7.51001 35.88 7.55001V12.84H37.8H37.81Z" fill="#515050"/>
<path d="M47.8 19.82C47.35 19.82 47.02 19.74 46.81 19.57C46.6 19.4 46.49 19.11 46.49 18.71V4.66999C46.6 4.63999 46.75 4.59999 46.95 4.55999C47.15 4.50999 47.37 4.48999 47.6 4.48999C48.05 4.48999 48.38 4.56999 48.59 4.73999C48.8 4.90999 48.91 5.19999 48.91 5.59999V19.63C48.79 19.68 48.63 19.72 48.44 19.76C48.25 19.8 48.04 19.82 47.8 19.82Z" fill="#515050"/>
<path d="M52.1 5.53C52.1 5.13 52.24 4.79 52.52 4.52C52.8 4.25 53.15 4.12 53.58 4.12C54.01 4.12 54.36 4.26 54.62 4.52C54.88 4.79 55.01 5.13 55.01 5.53C55.01 5.93 54.88 6.27 54.62 6.54C54.36 6.81 54.01 6.94 53.58 6.94C53.15 6.94 52.79 6.8 52.52 6.54C52.24 6.27 52.1 5.93 52.1 5.53ZM54.78 19.63C54.67 19.68 54.52 19.72 54.33 19.76C54.14 19.8 53.92 19.82 53.67 19.82C53.22 19.82 52.89 19.74 52.68 19.57C52.47 19.4 52.36 19.11 52.36 18.71V8.93C52.48 8.9 52.64 8.85999 52.83 8.81999C53.02 8.76999 53.24 8.75 53.49 8.75C53.94 8.75 54.27 8.83 54.47 9C54.68 9.17 54.78 9.46 54.78 9.88V19.64V19.63Z" fill="#515050"/>
<path d="M62.99 20C62.5 20 62.03 19.95 61.6 19.85C61.17 19.75 60.8 19.62 60.49 19.47V23.82C60.38 23.87 60.23 23.91 60.04 23.95C59.85 23.99 59.64 24.01 59.4 24.01C58.95 24.01 58.62 23.93 58.41 23.76C58.2 23.59 58.09 23.3 58.09 22.88V10.93C58.09 10.59 58.15 10.32 58.27 10.11C58.39 9.89999 58.63 9.69999 58.96 9.49999C59.39 9.24999 59.92 9.03999 60.54 8.83999C61.16 8.64999 61.87 8.54999 62.65 8.54999C63.43 8.54999 64.2 8.65999 64.89 8.88999C65.58 9.10999 66.18 9.45999 66.69 9.91999C67.2 10.38 67.6 10.97 67.89 11.69C68.18 12.41 68.33 13.26 68.33 14.24C68.33 15.22 68.19 16.06 67.93 16.77C67.66 17.49 67.29 18.09 66.82 18.57C66.35 19.05 65.79 19.42 65.13 19.66C64.47 19.9 63.75 20.02 62.97 20.02L62.99 20ZM62.62 18.04C63.62 18.04 64.42 17.74 65 17.13C65.59 16.52 65.88 15.56 65.88 14.23C65.88 13.55 65.8 12.98 65.63 12.5C65.46 12.02 65.23 11.63 64.95 11.33C64.67 11.03 64.33 10.81 63.93 10.68C63.54 10.55 63.12 10.48 62.67 10.48C62.18 10.48 61.76 10.54 61.41 10.65C61.06 10.76 60.76 10.9 60.5 11.05V17.41C60.76 17.59 61.07 17.74 61.42 17.86C61.78 17.97 62.18 18.03 62.62 18.03V18.04Z" fill="#515050"/>
<path d="M72.83 15.49C73.05 16.37 73.47 17.02 74.09 17.44C74.71 17.87 75.51 18.08 76.48 18.08C77.13 18.08 77.72 17.98 78.26 17.78C78.8 17.58 79.23 17.36 79.55 17.13C79.98 17.38 80.2 17.72 80.2 18.17C80.2 18.43 80.1 18.67 79.9 18.9C79.7 19.12 79.43 19.32 79.08 19.48C78.73 19.64 78.33 19.77 77.86 19.86C77.39 19.95 76.89 20 76.35 20C75.46 20 74.64 19.88 73.91 19.63C73.18 19.38 72.55 19.01 72.03 18.52C71.51 18.03 71.1 17.42 70.82 16.69C70.53 15.97 70.39 15.13 70.39 14.17C70.39 13.21 70.53 12.43 70.81 11.73C71.09 11.03 71.46 10.44 71.94 9.97C72.42 9.5 72.98 9.14 73.63 8.9C74.28 8.66 74.97 8.53 75.71 8.53C76.45 8.53 77.12 8.65 77.73 8.89C78.34 9.13 78.86 9.46 79.3 9.88C79.74 10.31 80.08 10.81 80.32 11.39C80.56 11.98 80.68 12.61 80.68 13.31C80.68 13.7 80.59 13.98 80.4 14.15C80.22 14.33 79.95 14.45 79.59 14.51L72.84 15.48L72.83 15.49ZM75.7 10.41C74.85 10.41 74.15 10.69 73.59 11.26C73.03 11.83 72.73 12.65 72.7 13.71L78.39 12.9C78.33 12.21 78.07 11.62 77.63 11.13C77.18 10.64 76.54 10.4 75.71 10.4L75.7 10.41Z" fill="#515050"/>
<path d="M85.55 19.63C85.44 19.68 85.29 19.72 85.1 19.76C84.91 19.8 84.7 19.82 84.46 19.82C84.01 19.82 83.68 19.74 83.47 19.57C83.26 19.4 83.15 19.11 83.15 18.71V11.13C83.15 10.74 83.23 10.43 83.38 10.19C83.53 9.95001 83.78 9.72001 84.12 9.51001C84.57 9.23001 85.14 9.00001 85.83 8.82001C86.52 8.64001 87.29 8.54001 88.12 8.54001C89.48 8.54001 90.15 8.93001 90.15 9.70001C90.15 9.88001 90.12 10.06 90.06 10.22C90 10.38 89.93 10.52 89.85 10.65C89.7 10.62 89.5 10.59 89.27 10.56C89.04 10.53 88.79 10.51 88.53 10.51C87.91 10.51 87.35 10.58 86.84 10.71C86.33 10.84 85.9 11.01 85.55 11.21V19.65V19.63Z" fill="#515050"/>
<path d="M20.8 0H6.16C2.76 0 0 2.76 0 6.16V16.95C0 20.35 2.76 23.11 6.16 23.11H20.8C24.2 23.11 26.96 20.35 26.96 16.95V6.16C26.96 2.76 24.2 0 20.8 0ZM23.31 15.67C23.23 17.89 21.39 19.67 19.15 19.67H7.82C5.53 19.67 3.66 17.8 3.66 15.51V7.6C3.66 5.39 5.35 3.6 7.54 3.45L7.82 3.44H10.64C12.85 3.6 14.58 5.49 14.52 7.72C14.46 9.95 12.53 11.77 10.22 11.77H8.5C8.01 11.77 7.6 11.37 7.6 10.87C7.6 10.37 8 9.97 8.5 9.97H10.36C11 9.97 11.61 9.72 12.05 9.26C12.49 8.8 12.74 8.19 12.72 7.55C12.69 6.28 11.57 5.25 10.24 5.25H7.82C6.55 5.25 5.52 6.23 5.46 7.49V7.54V15.67C5.53 16.91 6.57 17.89 7.82 17.89H19.16C20.46 17.89 21.53 16.83 21.53 15.52V7.65C21.53 6.35 20.47 5.28 19.16 5.28H16.94C16.45 5.28 16.04 4.88 16.04 4.38C16.04 3.88 16.44 3.48 16.94 3.48H19.16C21.39 3.48 23.18 5.19 23.31 7.4H23.32V15.67H23.31Z" fill="#48BCBD"/>
</g>
<defs>
<clipPath id="clip0_518_3871">
<rect width="90.15" height="24" fill="white"/>
</clipPath>
</defs>
</svg>
